<svg width="214" height="50" viewBox="0 0 214 50" fill="none" xmlns="http://www.w3.org/2000/svg">
<ellipse cx="13.9608" cy="14.6997" rx="13.9608" ry="14.6997" transform="matrix(0.951033 0.30909 -0.292928 0.956134 166.446 0.921005)" fill="#D9D9D9"/>
<path d="M182.286 8.18216L181.567 8.86575L181.567 8.86575L182.286 8.18216ZM181.397 28.8751C181.528 29.4159 182.067 29.7531 182.6 29.6284L191.299 27.5961C191.832 27.4713 192.159 26.9319 192.028 26.3911C191.897 25.8503 191.358 25.513 190.824 25.6378L183.093 27.4443L181.196 19.6111C181.065 19.0703 180.526 18.733 179.993 18.8578C179.459 18.9825 179.132 19.522 179.263 20.0627L181.397 28.8751ZM165.273 4.74927C165.739 5.64367 165.738 5.64388 165.738 5.64407C165.738 5.64411 165.738 5.64429 165.737 5.64437C165.737 5.64453 165.737 5.64461 165.737 5.64463C165.737 5.64466 165.737 5.6444 165.738 5.64387C165.74 5.64281 165.745 5.64064 165.751 5.63743C165.764 5.63102 165.785 5.62045 165.815 5.60627C165.874 5.5779 165.967 5.53512 166.089 5.48223C166.334 5.37635 166.7 5.23044 167.164 5.07843C168.096 4.77369 169.413 4.44871 170.952 4.36633C174.004 4.20291 177.948 4.9871 181.567 8.86575L182.286 8.18216L183.006 7.49857C178.906 3.10301 174.343 2.17075 170.819 2.35944C169.069 2.4531 167.58 2.82132 166.527 3.16576C166 3.33834 165.579 3.50601 165.286 3.63257C165.139 3.6959 165.024 3.74905 164.943 3.78756C164.903 3.80682 164.871 3.82243 164.848 3.83383C164.837 3.83953 164.828 3.84417 164.821 3.8477C164.818 3.84947 164.815 3.85095 164.812 3.85215C164.811 3.85275 164.81 3.85327 164.809 3.85372C164.809 3.85395 164.808 3.85423 164.808 3.85435C164.808 3.85461 164.807 3.85486 165.273 4.74927ZM182.286 8.18216L181.567 8.86575C185.149 12.7063 185.511 16.8508 184.799 20.389C184.076 23.9742 182.257 26.8867 181.512 28.1166L182.363 28.6493L183.214 29.182C183.949 27.9686 185.95 24.7847 186.749 20.8157C187.558 16.7998 187.142 11.9323 183.006 7.49857L182.286 8.18216Z" fill="black"/>
<path d="M162.58 26.4333L163.308 25.7596L163.308 25.7596L162.58 26.4333ZM163.956 6.6683C163.822 6.12784 163.281 5.79309 162.749 5.92061L154.07 7.99869C153.537 8.12621 153.215 8.66772 153.349 9.20818C153.483 9.74864 154.024 10.0834 154.557 9.95588L162.271 8.10869L164.218 15.9374C164.352 16.4779 164.893 16.8127 165.425 16.6851C165.958 16.5576 166.281 16.0161 166.146 15.4756L163.956 6.6683ZM179.702 30.2883C179.26 29.3809 179.26 29.3807 179.261 29.3805C179.261 29.3805 179.261 29.3803 179.261 29.3803C179.261 29.3801 179.262 29.38 179.262 29.38C179.262 29.38 179.261 29.3802 179.26 29.3807C179.258 29.3817 179.254 29.3838 179.247 29.3869C179.234 29.3929 179.212 29.4029 179.182 29.4164C179.122 29.4432 179.028 29.4835 178.903 29.5332C178.654 29.6327 178.283 29.7691 177.812 29.9091C176.867 30.1897 175.531 30.4809 173.975 30.5242C170.886 30.6101 166.909 29.7257 163.308 25.7596L162.58 26.4333L161.852 27.107C165.923 31.5902 170.506 32.6333 174.06 32.5344C175.825 32.4853 177.332 32.156 178.399 31.8392C178.934 31.6805 179.361 31.524 179.658 31.4052C179.807 31.3458 179.924 31.2957 180.006 31.2594C180.047 31.2412 180.079 31.2265 180.102 31.2157C180.114 31.2103 180.123 31.2059 180.13 31.2025C180.133 31.2009 180.136 31.1995 180.139 31.1983C180.14 31.1978 180.141 31.1973 180.142 31.1968C180.142 31.1966 180.143 31.1964 180.143 31.1962C180.144 31.196 180.144 31.1958 179.702 30.2883ZM162.58 26.4333L163.308 25.7596C159.766 21.8587 159.662 17.7126 160.558 14.2943C161.47 10.8176 163.379 8.21072 163.846 7.4279L162.992 6.8992L162.138 6.3705C161.77 6.98727 159.639 9.92279 158.635 13.751C157.616 17.6375 157.722 22.5587 161.852 27.107L162.58 26.4333Z" fill="black"/>
<path d="M0.154 32L3.332 21.794H7.378L10.556 32H7.602L5.754 25.252L5.404 23.922H5.306L4.956 25.252L3.108 32H0.154ZM3.416 30.18L4.046 28.024H6.664L7.294 30.18H3.416ZM14.5128 32.14C13.9808 32.14 13.5001 32.0793 13.0708 31.958C12.6508 31.8367 12.2868 31.664 11.9788 31.44C11.6801 31.216 11.4468 30.95 11.2788 30.642C11.1108 30.3247 11.0268 29.9793 11.0268 29.606H13.6588C13.6774 29.7647 13.7241 29.8953 13.7988 29.998C13.8828 30.1007 13.9901 30.1753 14.1208 30.222C14.2608 30.2687 14.4148 30.292 14.5828 30.292C14.8441 30.292 15.0354 30.25 15.1568 30.166C15.2781 30.0727 15.3388 29.9513 15.3388 29.802C15.3388 29.662 15.3014 29.5593 15.2268 29.494C15.1521 29.4287 15.0308 29.3773 14.8628 29.34C14.6948 29.2933 14.4661 29.2513 14.1768 29.214C13.4954 29.1113 12.9354 28.9713 12.4968 28.794C12.0581 28.6167 11.7314 28.3693 11.5168 28.052C11.3114 27.7253 11.2088 27.31 11.2088 26.806C11.2088 26.2927 11.3488 25.8447 11.6288 25.462C11.9181 25.0793 12.3194 24.7807 12.8328 24.566C13.3461 24.3513 13.9434 24.244 14.6248 24.244C15.2594 24.244 15.8148 24.3467 16.2908 24.552C16.7761 24.748 17.1588 25.028 17.4388 25.392C17.7188 25.7467 17.8728 26.162 17.9008 26.638H15.2688C15.2688 26.5167 15.2361 26.4187 15.1708 26.344C15.1148 26.26 15.0308 26.1993 14.9188 26.162C14.8161 26.1153 14.6901 26.092 14.5408 26.092C14.3448 26.092 14.1861 26.134 14.0648 26.218C13.9434 26.2927 13.8828 26.4093 13.8828 26.568C13.8828 26.6987 13.9248 26.8013 14.0088 26.876C14.1021 26.9413 14.2514 26.9973 14.4568 27.044C14.6714 27.0907 14.9514 27.1373 15.2968 27.184C15.9594 27.268 16.4914 27.4033 16.8928 27.59C17.3034 27.7767 17.5974 28.0287 17.7748 28.346C17.9614 28.6633 18.0548 29.0693 18.0548 29.564C18.0548 30.1147 17.9054 30.5813 17.6068 30.964C17.3174 31.3467 16.9068 31.6407 16.3748 31.846C15.8428 32.042 15.2221 32.14 14.5128 32.14ZM22.4014 32.14C21.8694 32.14 21.3888 32.0793 20.9594 31.958C20.5394 31.8367 20.1754 31.664 19.8674 31.44C19.5688 31.216 19.3354 30.95 19.1674 30.642C18.9994 30.3247 18.9154 29.9793 18.9154 29.606H21.5474C21.5661 29.7647 21.6128 29.8953 21.6874 29.998C21.7714 30.1007 21.8788 30.1753 22.0094 30.222C22.1494 30.2687 22.3034 30.292 22.4714 30.292C22.7328 30.292 22.9241 30.25 23.0454 30.166C23.1668 30.0727 23.2274 29.9513 23.2274 29.802C23.2274 29.662 23.1901 29.5593 23.1154 29.494C23.0408 29.4287 22.9194 29.3773 22.7514 29.34C22.5834 29.2933 22.3548 29.2513 22.0654 29.214C21.3841 29.1113 20.8241 28.9713 20.3854 28.794C19.9468 28.6167 19.6201 28.3693 19.4054 28.052C19.2001 27.7253 19.0974 27.31 19.0974 26.806C19.0974 26.2927 19.2374 25.8447 19.5174 25.462C19.8068 25.0793 20.2081 24.7807 20.7214 24.566C21.2348 24.3513 21.8321 24.244 22.5134 24.244C23.1481 24.244 23.7034 24.3467 24.1794 24.552C24.6648 24.748 25.0474 25.028 25.3274 25.392C25.6074 25.7467 25.7614 26.162 25.7894 26.638H23.1574C23.1574 26.5167 23.1248 26.4187 23.0594 26.344C23.0034 26.26 22.9194 26.1993 22.8074 26.162C22.7048 26.1153 22.5788 26.092 22.4294 26.092C22.2334 26.092 22.0748 26.134 21.9534 26.218C21.8321 26.2927 21.7714 26.4093 21.7714 26.568C21.7714 26.6987 21.8134 26.8013 21.8974 26.876C21.9908 26.9413 22.1401 26.9973 22.3454 27.044C22.5601 27.0907 22.8401 27.1373 23.1854 27.184C23.8481 27.268 24.3801 27.4033 24.7814 27.59C25.1921 27.7767 25.4861 28.0287 25.6634 28.346C25.8501 28.6633 25.9434 29.0693 25.9434 29.564C25.9434 30.1147 25.7941 30.5813 25.4954 30.964C25.2061 31.3467 24.7954 31.6407 24.2634 31.846C23.7314 32.042 23.1108 32.14 22.4014 32.14ZM30.6427 32.14C30.0547 32.14 29.5227 32.056 29.0467 31.888C28.5707 31.7107 28.1601 31.454 27.8147 31.118C27.4694 30.7727 27.2034 30.3573 27.0167 29.872C26.8301 29.3773 26.7367 28.8173 26.7367 28.192C26.7367 27.3987 26.8861 26.708 27.1847 26.12C27.4927 25.532 27.9361 25.0747 28.5147 24.748C29.1027 24.412 29.8121 24.244 30.6427 24.244C31.2307 24.244 31.7627 24.3327 32.2387 24.51C32.7147 24.678 33.1254 24.9347 33.4707 25.28C33.8161 25.616 34.0821 26.0267 34.2687 26.512C34.4554 26.9973 34.5487 27.5573 34.5487 28.192C34.5487 28.976 34.3947 29.6667 34.0867 30.264C33.7881 30.852 33.3494 31.314 32.7707 31.65C32.1921 31.9767 31.4827 32.14 30.6427 32.14ZM30.6427 29.998C30.8854 29.998 31.0954 29.9373 31.2727 29.816C31.4594 29.6947 31.5994 29.5033 31.6927 29.242C31.7954 28.9713 31.8467 28.6213 31.8467 28.192C31.8467 27.8653 31.8187 27.59 31.7627 27.366C31.7067 27.1327 31.6227 26.946 31.5107 26.806C31.4081 26.6567 31.2821 26.5493 31.1327 26.484C30.9927 26.4187 30.8294 26.386 30.6427 26.386C30.4001 26.386 30.1854 26.4467 29.9987 26.568C29.8214 26.6893 29.6814 26.8807 29.5787 27.142C29.4854 27.4033 29.4387 27.7533 29.4387 28.192C29.4387 28.5187 29.4667 28.7987 29.5227 29.032C29.5787 29.256 29.6581 29.4427 29.7607 29.592C29.8727 29.732 30.0034 29.8347 30.1527 29.9C30.3021 29.9653 30.4654 29.998 30.6427 29.998ZM39.3237 32.14C38.7357 32.14 38.2037 32.0467 37.7277 31.86C37.2517 31.6733 36.841 31.4073 36.4957 31.062C36.1597 30.7073 35.8984 30.2873 35.7117 29.802C35.5344 29.3167 35.4457 28.7753 35.4457 28.178C35.4457 27.5807 35.539 27.0393 35.7257 26.554C35.9124 26.0687 36.1784 25.6533 36.5237 25.308C36.869 24.9627 37.2844 24.7013 37.7697 24.524C38.255 24.3373 38.7964 24.244 39.3937 24.244C40.0844 24.244 40.6957 24.3747 41.2277 24.636C41.7597 24.888 42.1797 25.2427 42.4877 25.7C42.7957 26.1573 42.9544 26.6893 42.9637 27.296H40.3597C40.3317 27.0907 40.2664 26.9227 40.1637 26.792C40.0704 26.6613 39.9537 26.5633 39.8137 26.498C39.6737 26.4327 39.515 26.4 39.3377 26.4C39.1324 26.4 38.955 26.442 38.8057 26.526C38.6564 26.61 38.535 26.7313 38.4417 26.89C38.3484 27.0393 38.2784 27.226 38.2317 27.45C38.185 27.6647 38.1617 27.912 38.1617 28.192C38.1617 28.612 38.2084 28.9527 38.3017 29.214C38.4044 29.4753 38.5397 29.6713 38.7077 29.802C38.885 29.9233 39.0904 29.984 39.3237 29.984C39.5477 29.984 39.7344 29.9467 39.8837 29.872C40.033 29.788 40.1497 29.6807 40.2337 29.55C40.3177 29.41 40.369 29.256 40.3877 29.088H42.9777C42.959 29.704 42.791 30.2407 42.4737 30.698C42.1564 31.1553 41.727 31.51 41.1857 31.762C40.6444 32.014 40.0237 32.14 39.3237 32.14ZM44.0548 32V24.384H46.7288V32H44.0548ZM45.3988 23.754C45.0068 23.754 44.6802 23.656 44.4188 23.46C44.1668 23.2547 44.0408 22.9653 44.0408 22.592C44.0408 22.2187 44.1668 21.934 44.4188 21.738C44.6802 21.5327 45.0068 21.43 45.3988 21.43C45.7908 21.43 46.1128 21.5327 46.3648 21.738C46.6262 21.934 46.7568 22.2187 46.7568 22.592C46.7568 22.9653 46.6262 23.2547 46.3648 23.46C46.1128 23.656 45.7908 23.754 45.3988 23.754ZM50.9404 32.14C50.4831 32.14 50.0631 32.0513 49.6804 31.874C49.3071 31.6967 48.9851 31.44 48.7144 31.104C48.4438 30.768 48.2338 30.3573 48.0844 29.872C47.9444 29.3773 47.8744 28.8173 47.8744 28.192C47.8744 27.352 48.0004 26.638 48.2524 26.05C48.5138 25.462 48.8731 25.014 49.3304 24.706C49.7878 24.398 50.3244 24.244 50.9404 24.244C51.2858 24.244 51.6031 24.2953 51.8924 24.398C52.1818 24.5007 52.4291 24.6453 52.6344 24.832C52.8491 25.0187 53.0031 25.238 53.0964 25.49H53.2364L53.3344 24.384H55.8824V32H53.3344L53.2364 30.894H53.0964C52.9564 31.2673 52.6904 31.5707 52.2984 31.804C51.9064 32.028 51.4538 32.14 50.9404 32.14ZM51.9344 29.998C52.2331 29.998 52.4758 29.9373 52.6624 29.816C52.8491 29.6947 52.9844 29.522 53.0684 29.298C53.1618 29.074 53.2084 28.8127 53.2084 28.514V27.87C53.2084 27.5527 53.1571 27.2867 53.0544 27.072C52.9611 26.848 52.8211 26.68 52.6344 26.568C52.4571 26.4467 52.2471 26.386 52.0044 26.386C51.6684 26.386 51.3978 26.4607 51.1924 26.61C50.9871 26.7593 50.8378 26.9693 50.7444 27.24C50.6511 27.5107 50.6044 27.828 50.6044 28.192C50.6044 28.5467 50.6464 28.864 50.7304 29.144C50.8144 29.4147 50.9544 29.6247 51.1504 29.774C51.3464 29.9233 51.6078 29.998 51.9344 29.998ZM60.4086 32C59.8019 32 59.3352 31.9113 59.0086 31.734C58.6819 31.5567 58.4579 31.3093 58.3366 30.992C58.2152 30.6653 58.1546 30.292 58.1546 29.872V26.526H56.8806V24.384H58.1546V22.438L60.8286 22.214V24.384H65.9946V32H63.3206V26.526H60.8286V29.368C60.8286 29.564 60.8799 29.6947 60.9826 29.76C61.0852 29.8253 61.2159 29.858 61.3746 29.858H62.2146V32H60.4086ZM64.6646 23.754C64.2726 23.754 63.9459 23.656 63.6846 23.46C63.4326 23.2547 63.3066 22.9653 63.3066 22.592C63.3066 22.2187 63.4326 21.934 63.6846 21.738C63.9459 21.5327 64.2726 21.43 64.6646 21.43C65.0566 21.43 65.3786 21.5327 65.6306 21.738C65.8919 21.934 66.0226 22.2187 66.0226 22.592C66.0226 22.9653 65.8919 23.2547 65.6306 23.46C65.3786 23.656 65.0566 23.754 64.6646 23.754ZM71.0021 32.14C70.4141 32.14 69.8821 32.056 69.4061 31.888C68.9301 31.7107 68.5194 31.454 68.1741 31.118C67.8288 30.7727 67.5628 30.3573 67.3761 29.872C67.1894 29.3773 67.0961 28.8173 67.0961 28.192C67.0961 27.3987 67.2454 26.708 67.5441 26.12C67.8521 25.532 68.2954 25.0747 68.8741 24.748C69.4621 24.412 70.1714 24.244 71.0021 24.244C71.5901 24.244 72.1221 24.3327 72.5981 24.51C73.0741 24.678 73.4848 24.9347 73.8301 25.28C74.1754 25.616 74.4414 26.0267 74.6281 26.512C74.8148 26.9973 74.9081 27.5573 74.9081 28.192C74.9081 28.976 74.7541 29.6667 74.4461 30.264C74.1474 30.852 73.7088 31.314 73.1301 31.65C72.5514 31.9767 71.8421 32.14 71.0021 32.14ZM71.0021 29.998C71.2448 29.998 71.4548 29.9373 71.6321 29.816C71.8188 29.6947 71.9588 29.5033 72.0521 29.242C72.1548 28.9713 72.2061 28.6213 72.2061 28.192C72.2061 27.8653 72.1781 27.59 72.1221 27.366C72.0661 27.1327 71.9821 26.946 71.8701 26.806C71.7674 26.6567 71.6414 26.5493 71.4921 26.484C71.3521 26.4187 71.1888 26.386 71.0021 26.386C70.7594 26.386 70.5448 26.4467 70.3581 26.568C70.1808 26.6893 70.0408 26.8807 69.9381 27.142C69.8448 27.4033 69.7981 27.7533 69.7981 28.192C69.7981 28.5187 69.8261 28.7987 69.8821 29.032C69.9381 29.256 70.0174 29.4427 70.1201 29.592C70.2321 29.732 70.3628 29.8347 70.5121 29.9C70.6614 29.9653 70.8248 29.998 71.0021 29.998ZM76.0197 32V24.384H78.5957L78.6937 25.63H78.8057C78.9923 25.1633 79.2863 24.818 79.6877 24.594C80.0983 24.3607 80.5557 24.244 81.0597 24.244C81.433 24.244 81.7783 24.3 82.0957 24.412C82.4223 24.524 82.707 24.7013 82.9497 24.944C83.1923 25.1867 83.379 25.5087 83.5097 25.91C83.6497 26.302 83.7197 26.778 83.7197 27.338V32H81.0457V27.926C81.0457 27.59 81.0083 27.31 80.9337 27.086C80.859 26.8527 80.7423 26.68 80.5837 26.568C80.425 26.456 80.2103 26.4 79.9397 26.4C79.6597 26.4 79.4263 26.4653 79.2397 26.596C79.0623 26.7267 78.927 26.89 78.8337 27.086C78.7403 27.282 78.6937 27.4827 78.6937 27.688V32H76.0197ZM88.0252 32V21.794H95.7112V24.202H90.4192L90.8672 23.754V32H88.0252ZM90.1952 28.346V26.064H95.1512V28.346H90.1952ZM96.5548 32V24.384H98.9768L99.0748 25.49H99.1728C99.3408 25.0047 99.5975 24.6827 99.9428 24.524C100.297 24.3653 100.699 24.286 101.147 24.286C101.231 24.286 101.305 24.286 101.371 24.286C101.436 24.286 101.501 24.286 101.567 24.286V26.792C101.52 26.792 101.455 26.792 101.371 26.792C101.287 26.792 101.193 26.792 101.091 26.792C100.605 26.792 100.227 26.8573 99.9568 26.988C99.6862 27.1093 99.4948 27.2913 99.3828 27.534C99.2802 27.7673 99.2288 28.0567 99.2288 28.402V32H96.5548ZM105.286 32.14C104.829 32.14 104.409 32.0513 104.026 31.874C103.653 31.6967 103.331 31.44 103.06 31.104C102.789 30.768 102.579 30.3573 102.43 29.872C102.29 29.3773 102.22 28.8173 102.22 28.192C102.22 27.352 102.346 26.638 102.598 26.05C102.859 25.462 103.219 25.014 103.676 24.706C104.133 24.398 104.67 24.244 105.286 24.244C105.631 24.244 105.949 24.2953 106.238 24.398C106.527 24.5007 106.775 24.6453 106.98 24.832C107.195 25.0187 107.349 25.238 107.442 25.49H107.582L107.68 24.384H110.228V32H107.68L107.582 30.894H107.442C107.302 31.2673 107.036 31.5707 106.644 31.804C106.252 32.028 105.799 32.14 105.286 32.14ZM106.28 29.998C106.579 29.998 106.821 29.9373 107.008 29.816C107.195 29.6947 107.33 29.522 107.414 29.298C107.507 29.074 107.554 28.8127 107.554 28.514V27.87C107.554 27.5527 107.503 27.2867 107.4 27.072C107.307 26.848 107.167 26.68 106.98 26.568C106.803 26.4467 106.593 26.386 106.35 26.386C106.014 26.386 105.743 26.4607 105.538 26.61C105.333 26.7593 105.183 26.9693 105.09 27.24C104.997 27.5107 104.95 27.828 104.95 28.192C104.95 28.5467 104.992 28.864 105.076 29.144C105.16 29.4147 105.3 29.6247 105.496 29.774C105.692 29.9233 105.953 29.998 106.28 29.998ZM111.744 32V24.384H114.32L114.418 25.63H114.53C114.717 25.1633 115.011 24.818 115.412 24.594C115.823 24.3607 116.28 24.244 116.784 24.244C117.158 24.244 117.503 24.3 117.82 24.412C118.147 24.524 118.432 24.7013 118.674 24.944C118.917 25.1867 119.104 25.5087 119.234 25.91C119.374 26.302 119.444 26.778 119.444 27.338V32H116.77V27.926C116.77 27.59 116.733 27.31 116.658 27.086C116.584 26.8527 116.467 26.68 116.308 26.568C116.15 26.456 115.935 26.4 115.664 26.4C115.384 26.4 115.151 26.4653 114.964 26.596C114.787 26.7267 114.652 26.89 114.558 27.086C114.465 27.282 114.418 27.4827 114.418 27.688V32H111.744ZM124.417 32.14C123.829 32.14 123.297 32.0467 122.821 31.86C122.345 31.6733 121.935 31.4073 121.589 31.062C121.253 30.7073 120.992 30.2873 120.805 29.802C120.628 29.3167 120.539 28.7753 120.539 28.178C120.539 27.5807 120.633 27.0393 120.819 26.554C121.006 26.0687 121.272 25.6533 121.617 25.308C121.963 24.9627 122.378 24.7013 122.863 24.524C123.349 24.3373 123.89 24.244 124.487 24.244C125.178 24.244 125.789 24.3747 126.321 24.636C126.853 24.888 127.273 25.2427 127.581 25.7C127.889 26.1573 128.048 26.6893 128.057 27.296H125.453C125.425 27.0907 125.36 26.9227 125.257 26.792C125.164 26.6613 125.047 26.5633 124.907 26.498C124.767 26.4327 124.609 26.4 124.431 26.4C124.226 26.4 124.049 26.442 123.899 26.526C123.75 26.61 123.629 26.7313 123.535 26.89C123.442 27.0393 123.372 27.226 123.325 27.45C123.279 27.6647 123.255 27.912 123.255 28.192C123.255 28.612 123.302 28.9527 123.395 29.214C123.498 29.4753 123.633 29.6713 123.801 29.802C123.979 29.9233 124.184 29.984 124.417 29.984C124.641 29.984 124.828 29.9467 124.977 29.872C125.127 29.788 125.243 29.6807 125.327 29.55C125.411 29.41 125.463 29.256 125.481 29.088H128.071C128.053 29.704 127.885 30.2407 127.567 30.698C127.25 31.1553 126.821 31.51 126.279 31.762C125.738 32.014 125.117 32.14 124.417 32.14ZM124.207 35.654C123.666 35.654 123.176 35.5327 122.737 35.29C122.299 35.0567 122.028 34.674 121.925 34.142L123.493 33.736C123.503 33.876 123.559 33.988 123.661 34.072C123.764 34.1653 123.89 34.212 124.039 34.212C124.189 34.212 124.305 34.17 124.389 34.086C124.483 34.0113 124.529 33.9087 124.529 33.778C124.529 33.5913 124.436 33.4653 124.249 33.4C124.063 33.3347 123.801 33.2787 123.465 33.232L123.269 32.854L124.039 31.678H125.131L124.879 32.476C125.29 32.6067 125.621 32.798 125.873 33.05C126.135 33.302 126.265 33.6473 126.265 34.086C126.265 34.59 126.074 34.9773 125.691 35.248C125.318 35.5187 124.823 35.654 124.207 35.654ZM131.851 32.14C131.393 32.14 130.973 32.0513 130.591 31.874C130.217 31.6967 129.895 31.44 129.625 31.104C129.354 30.768 129.144 30.3573 128.995 29.872C128.855 29.3773 128.785 28.8173 128.785 28.192C128.785 27.352 128.911 26.638 129.163 26.05C129.424 25.462 129.783 25.014 130.241 24.706C130.698 24.398 131.235 24.244 131.851 24.244C132.196 24.244 132.513 24.2953 132.803 24.398C133.092 24.5007 133.339 24.6453 133.545 24.832C133.759 25.0187 133.913 25.238 134.007 25.49H134.147L134.245 24.384H136.793V32H134.245L134.147 30.894H134.007C133.867 31.2673 133.601 31.5707 133.209 31.804C132.817 32.028 132.364 32.14 131.851 32.14ZM132.845 29.998C133.143 29.998 133.386 29.9373 133.573 29.816C133.759 29.6947 133.895 29.522 133.979 29.298C134.072 29.074 134.119 28.8127 134.119 28.514V27.87C134.119 27.5527 134.067 27.2867 133.965 27.072C133.871 26.848 133.731 26.68 133.545 26.568C133.367 26.4467 133.157 26.386 132.915 26.386C132.579 26.386 132.308 26.4607 132.103 26.61C131.897 26.7593 131.748 26.9693 131.655 27.24C131.561 27.5107 131.515 27.828 131.515 28.192C131.515 28.5467 131.557 28.864 131.641 29.144C131.725 29.4147 131.865 29.6247 132.061 29.774C132.257 29.9233 132.518 29.998 132.845 29.998ZM138.309 32V24.384H140.983V32H138.309ZM139.653 23.754C139.261 23.754 138.934 23.656 138.673 23.46C138.421 23.2547 138.295 22.9653 138.295 22.592C138.295 22.2187 138.421 21.934 138.673 21.738C138.934 21.5327 139.261 21.43 139.653 21.43C140.045 21.43 140.367 21.5327 140.619 21.738C140.88 21.934 141.011 22.2187 141.011 22.592C141.011 22.9653 140.88 23.2547 140.619 23.46C140.367 23.656 140.045 23.754 139.653 23.754ZM145.53 32.14C144.998 32.14 144.518 32.0793 144.088 31.958C143.668 31.8367 143.304 31.664 142.996 31.44C142.698 31.216 142.464 30.95 142.296 30.642C142.128 30.3247 142.044 29.9793 142.044 29.606H144.676C144.695 29.7647 144.742 29.8953 144.816 29.998C144.9 30.1007 145.008 30.1753 145.138 30.222C145.278 30.2687 145.432 30.292 145.6 30.292C145.862 30.292 146.053 30.25 146.174 30.166C146.296 30.0727 146.356 29.9513 146.356 29.802C146.356 29.662 146.319 29.5593 146.244 29.494C146.17 29.4287 146.048 29.3773 145.88 29.34C145.712 29.2933 145.484 29.2513 145.194 29.214C144.513 29.1113 143.953 28.9713 143.514 28.794C143.076 28.6167 142.749 28.3693 142.534 28.052C142.329 27.7253 142.226 27.31 142.226 26.806C142.226 26.2927 142.366 25.8447 142.646 25.462C142.936 25.0793 143.337 24.7807 143.85 24.566C144.364 24.3513 144.961 24.244 145.642 24.244C146.277 24.244 146.832 24.3467 147.308 24.552C147.794 24.748 148.176 25.028 148.456 25.392C148.736 25.7467 148.89 26.162 148.918 26.638H146.286C146.286 26.5167 146.254 26.4187 146.188 26.344C146.132 26.26 146.048 26.1993 145.936 26.162C145.834 26.1153 145.708 26.092 145.558 26.092C145.362 26.092 145.204 26.134 145.082 26.218C144.961 26.2927 144.9 26.4093 144.9 26.568C144.9 26.6987 144.942 26.8013 145.026 26.876C145.12 26.9413 145.269 26.9973 145.474 27.044C145.689 27.0907 145.969 27.1373 146.314 27.184C146.977 27.268 147.509 27.4033 147.91 27.59C148.321 27.7767 148.615 28.0287 148.792 28.346C148.979 28.6633 149.072 29.0693 149.072 29.564C149.072 30.1147 148.923 30.5813 148.624 30.964C148.335 31.3467 147.924 31.6407 147.392 31.846C146.86 32.042 146.24 32.14 145.53 32.14ZM153.786 32.14C152.955 32.14 152.246 31.9813 151.658 31.664C151.079 31.3373 150.636 30.8847 150.328 30.306C150.02 29.718 149.866 29.0367 149.866 28.262C149.866 27.4313 150.024 26.7173 150.342 26.12C150.659 25.5133 151.102 25.0513 151.672 24.734C152.25 24.4073 152.922 24.244 153.688 24.244C154.612 24.244 155.368 24.4447 155.956 24.846C156.544 25.238 156.964 25.7793 157.216 26.47C157.477 27.1607 157.561 27.9447 157.468 28.822H152.498C152.488 29.102 152.535 29.3447 152.638 29.55C152.75 29.746 152.904 29.8953 153.1 29.998C153.296 30.1007 153.524 30.152 153.786 30.152C154.094 30.152 154.336 30.1007 154.514 29.998C154.691 29.8953 154.812 29.76 154.878 29.592H157.398C157.332 30.1053 157.136 30.5533 156.81 30.936C156.492 31.3093 156.072 31.6033 155.55 31.818C155.036 32.0327 154.448 32.14 153.786 32.14ZM152.498 27.45L152.274 27.226H155.074L154.836 27.436C154.854 27.1747 154.817 26.9553 154.724 26.778C154.63 26.6007 154.495 26.4653 154.318 26.372C154.14 26.2693 153.93 26.218 153.688 26.218C153.436 26.218 153.216 26.2693 153.03 26.372C152.852 26.4747 152.717 26.6193 152.624 26.806C152.53 26.9927 152.488 27.2073 152.498 27.45ZM3.458 47.14C3.00067 47.14 2.58067 47.0513 2.198 46.874C1.82467 46.6967 1.50267 46.44 1.232 46.104C0.961333 45.768 0.751333 45.3573 0.602 44.872C0.462 44.3773 0.392 43.8173 0.392 43.192C0.392 42.352 0.518 41.638 0.77 41.05C1.03133 40.462 1.39067 40.014 1.848 39.706C2.30533 39.398 2.842 39.244 3.458 39.244C3.80333 39.244 4.12067 39.2953 4.41 39.398C4.69933 39.5007 4.94667 39.6453 5.152 39.832C5.36667 40.0187 5.52067 40.238 5.614 40.49H5.726V36.794H8.4V47H5.852L5.754 45.894H5.614C5.474 46.2673 5.208 46.5707 4.816 46.804C4.424 47.028 3.97133 47.14 3.458 47.14ZM4.452 44.998C4.75067 44.998 4.99333 44.9373 5.18 44.816C5.36667 44.6947 5.502 44.522 5.586 44.298C5.67933 44.074 5.726 43.8127 5.726 43.514V42.87C5.726 42.5527 5.67467 42.2867 5.572 42.072C5.47867 41.848 5.33867 41.68 5.152 41.568C4.97467 41.4467 4.76467 41.386 4.522 41.386C4.186 41.386 3.91533 41.4607 3.71 41.61C3.50467 41.7593 3.35533 41.9693 3.262 42.24C3.16867 42.5107 3.122 42.828 3.122 43.192C3.122 43.5467 3.164 43.864 3.248 44.144C3.332 44.4147 3.472 44.6247 3.668 44.774C3.864 44.9233 4.12533 44.998 4.452 44.998ZM13.4302 47.14C12.5995 47.14 11.8902 46.9813 11.3022 46.664C10.7235 46.3373 10.2802 45.8847 9.97216 45.306C9.66416 44.718 9.51016 44.0367 9.51016 43.262C9.51016 42.4313 9.66882 41.7173 9.98616 41.12C10.3035 40.5133 10.7468 40.0513 11.3162 39.734C11.8948 39.4073 12.5668 39.244 13.3322 39.244C14.2562 39.244 15.0122 39.4447 15.6002 39.846C16.1882 40.238 16.6082 40.7793 16.8602 41.47C17.1215 42.1607 17.2055 42.9447 17.1122 43.822H12.1422C12.1328 44.102 12.1795 44.3447 12.2822 44.55C12.3942 44.746 12.5482 44.8953 12.7442 44.998C12.9402 45.1007 13.1688 45.152 13.4302 45.152C13.7382 45.152 13.9808 45.1007 14.1582 44.998C14.3355 44.8953 14.4568 44.76 14.5222 44.592H17.0422C16.9768 45.1053 16.7808 45.5533 16.4542 45.936C16.1368 46.3093 15.7168 46.6033 15.1942 46.818C14.6808 47.0327 14.0928 47.14 13.4302 47.14ZM12.1422 42.45L11.9182 42.226H14.7182L14.4802 42.436C14.4988 42.1747 14.4615 41.9553 14.3682 41.778C14.2748 41.6007 14.1395 41.4653 13.9622 41.372C13.7848 41.2693 13.5748 41.218 13.3322 41.218C13.0802 41.218 12.8608 41.2693 12.6742 41.372C12.4968 41.4747 12.3615 41.6193 12.2682 41.806C12.1748 41.9927 12.1328 42.2073 12.1422 42.45Z" fill="#535353"/>
<path d="M24.2997 47V37.864H27.5477V47H24.2997ZM21.0837 38.12V35.336H30.8597V38.12H21.0837ZM32.0495 47V35.336H35.1055V39.72H35.2335C35.4469 39.1867 35.7829 38.792 36.2415 38.536C36.7109 38.2693 37.2335 38.136 37.8095 38.136C38.2362 38.136 38.6309 38.2 38.9935 38.328C39.3669 38.456 39.6922 38.6587 39.9695 38.936C40.2469 39.2133 40.4602 39.5813 40.6095 40.04C40.7695 40.488 40.8495 41.032 40.8495 41.672V47H37.7935V42.344C37.7935 41.96 37.7509 41.64 37.6655 41.384C37.5802 41.1173 37.4469 40.92 37.2655 40.792C37.0842 40.664 36.8389 40.6 36.5295 40.6C36.2095 40.6 35.9429 40.6747 35.7295 40.824C35.5269 40.9733 35.3722 41.16 35.2655 41.384C35.1589 41.608 35.1055 41.8373 35.1055 42.072V47H32.0495ZM46.5812 47.16C45.6318 47.16 44.8212 46.9787 44.1492 46.616C43.4878 46.2427 42.9812 45.7253 42.6292 45.064C42.2772 44.392 42.1012 43.6133 42.1012 42.728C42.1012 41.7787 42.2825 40.9627 42.6452 40.28C43.0078 39.5867 43.5145 39.0587 44.1652 38.696C44.8265 38.3227 45.5945 38.136 46.4692 38.136C47.5252 38.136 48.3892 38.3653 49.0612 38.824C49.7332 39.272 50.2132 39.8907 50.5012 40.68C50.7998 41.4693 50.8958 42.3653 50.7892 43.368H45.1092C45.0985 43.688 45.1518 43.9653 45.2692 44.2C45.3972 44.424 45.5732 44.5947 45.7972 44.712C46.0212 44.8293 46.2825 44.888 46.5812 44.888C46.9332 44.888 47.2105 44.8293 47.4132 44.712C47.6158 44.5947 47.7545 44.44 47.8292 44.248H50.7092C50.6345 44.8347 50.4105 45.3467 50.0372 45.784C49.6745 46.2107 49.1945 46.5467 48.5972 46.792C48.0105 47.0373 47.3385 47.16 46.5812 47.16ZM45.1092 41.8L44.8532 41.544H48.0532L47.7812 41.784C47.8025 41.4853 47.7598 41.2347 47.6532 41.032C47.5465 40.8293 47.3918 40.6747 47.1892 40.568C46.9865 40.4507 46.7465 40.392 46.4692 40.392C46.1812 40.392 45.9305 40.4507 45.7172 40.568C45.5145 40.6853 45.3598 40.8507 45.2532 41.064C45.1465 41.2773 45.0985 41.5227 45.1092 41.8ZM45.3172 37.384L46.1652 35H49.1732L47.6212 37.384H45.3172ZM52.0808 47V38.296H54.8488L54.9608 39.56H55.0728C55.2648 39.0053 55.5581 38.6373 55.9528 38.456C56.3581 38.2747 56.8168 38.184 57.3288 38.184C57.4248 38.184 57.5101 38.184 57.5848 38.184C57.6595 38.184 57.7341 38.184 57.8088 38.184V41.048C57.7555 41.048 57.6808 41.048 57.5848 41.048C57.4888 41.048 57.3821 41.048 57.2648 41.048C56.7101 41.048 56.2781 41.1227 55.9688 41.272C55.6595 41.4107 55.4408 41.6187 55.3128 41.896C55.1955 42.1627 55.1368 42.4933 55.1368 42.888V47H52.0808ZM62.0594 47.16C61.5368 47.16 61.0568 47.0587 60.6194 46.856C60.1928 46.6533 59.8248 46.36 59.5154 45.976C59.2061 45.592 58.9661 45.1227 58.7954 44.568C58.6354 44.0027 58.5554 43.3627 58.5554 42.648C58.5554 41.688 58.6994 40.872 58.9874 40.2C59.2861 39.528 59.6968 39.016 60.2194 38.664C60.7421 38.312 61.3554 38.136 62.0594 38.136C62.4541 38.136 62.8168 38.1947 63.1474 38.312C63.4781 38.4293 63.7608 38.5947 63.9954 38.808C64.2408 39.0213 64.4168 39.272 64.5234 39.56H64.6834L64.7954 38.296H67.7074V47H64.7954L64.6834 45.736H64.5234C64.3634 46.1627 64.0594 46.5093 63.6114 46.776C63.1634 47.032 62.6461 47.16 62.0594 47.16ZM63.1954 44.712C63.5368 44.712 63.8141 44.6427 64.0274 44.504C64.2408 44.3653 64.3954 44.168 64.4914 43.912C64.5981 43.656 64.6514 43.3573 64.6514 43.016V42.28C64.6514 41.9173 64.5928 41.6133 64.4754 41.368C64.3688 41.112 64.2088 40.92 63.9954 40.792C63.7928 40.6533 63.5528 40.584 63.2754 40.584C62.8914 40.584 62.5821 40.6693 62.3474 40.84C62.1128 41.0107 61.9421 41.2507 61.8354 41.56C61.7288 41.8693 61.6754 42.232 61.6754 42.648C61.6754 43.0533 61.7234 43.416 61.8194 43.736C61.9154 44.0453 62.0754 44.2853 62.2994 44.456C62.5234 44.6267 62.8221 44.712 63.1954 44.712ZM69.4402 49.672V38.296H72.3522L72.4642 39.56H72.6242C72.7842 39.1333 73.0882 38.792 73.5362 38.536C73.9842 38.2693 74.5015 38.136 75.0882 38.136C75.6215 38.136 76.1015 38.2373 76.5282 38.44C76.9548 38.6427 77.3228 38.936 77.6322 39.32C77.9415 39.704 78.1762 40.1787 78.3362 40.744C78.5068 41.2987 78.5922 41.9333 78.5922 42.648C78.5922 43.5973 78.4482 44.4133 78.1602 45.096C77.8722 45.768 77.4615 46.28 76.9282 46.632C76.4055 46.984 75.7922 47.16 75.0882 47.16C74.7042 47.16 74.3415 47.1013 74.0002 46.984C73.6695 46.8667 73.3815 46.7013 73.1362 46.488C72.9015 46.264 72.7308 46.0133 72.6242 45.736H72.4962V49.672H69.4402ZM73.8722 44.712C74.2562 44.712 74.5655 44.6267 74.8002 44.456C75.0348 44.2853 75.2055 44.0453 75.3122 43.736C75.4188 43.416 75.4722 43.0533 75.4722 42.648C75.4722 42.232 75.4242 41.8693 75.3282 41.56C75.2322 41.2507 75.0722 41.0107 74.8482 40.84C74.6242 40.6693 74.3255 40.584 73.9522 40.584C73.6215 40.584 73.3442 40.6533 73.1202 40.792C72.9068 40.9307 72.7468 41.128 72.6402 41.384C72.5442 41.64 72.4962 41.9387 72.4962 42.28V43.016C72.4962 43.3787 72.5495 43.688 72.6562 43.944C72.7735 44.1893 72.9335 44.3813 73.1362 44.52C73.3495 44.648 73.5948 44.712 73.8722 44.712ZM79.9089 47V38.296H82.9649V47H79.9089ZM81.4449 37.576C80.9969 37.576 80.6236 37.464 80.3249 37.24C80.0369 37.0053 79.8929 36.6747 79.8929 36.248C79.8929 35.8213 80.0369 35.496 80.3249 35.272C80.6236 35.0373 80.9969 34.92 81.4449 34.92C81.8929 34.92 82.2609 35.0373 82.5489 35.272C82.8476 35.496 82.9969 35.8213 82.9969 36.248C82.9969 36.6747 82.8476 37.0053 82.5489 37.24C82.2609 37.464 81.8929 37.576 81.4449 37.576ZM88.7062 47.16C87.7568 47.16 86.9462 46.9787 86.2742 46.616C85.6128 46.2427 85.1062 45.7253 84.7542 45.064C84.4022 44.392 84.2262 43.6133 84.2262 42.728C84.2262 41.7787 84.4075 40.9627 84.7702 40.28C85.1328 39.5867 85.6395 39.0587 86.2902 38.696C86.9515 38.3227 87.7195 38.136 88.5942 38.136C89.6502 38.136 90.5142 38.3653 91.1862 38.824C91.8582 39.272 92.3382 39.8907 92.6262 40.68C92.9248 41.4693 93.0208 42.3653 92.9142 43.368H87.2342C87.2235 43.688 87.2768 43.9653 87.3942 44.2C87.5222 44.424 87.6982 44.5947 87.9222 44.712C88.1462 44.8293 88.4075 44.888 88.7062 44.888C89.0582 44.888 89.3355 44.8293 89.5382 44.712C89.7408 44.5947 89.8795 44.44 89.9542 44.248H92.8342C92.7595 44.8347 92.5355 45.3467 92.1622 45.784C91.7995 46.2107 91.3195 46.5467 90.7222 46.792C90.1355 47.0373 89.4635 47.16 88.7062 47.16ZM87.2342 41.8L86.9782 41.544H90.1782L89.9062 41.784C89.9275 41.4853 89.8848 41.2347 89.7782 41.032C89.6715 40.8293 89.5168 40.6747 89.3142 40.568C89.1115 40.4507 88.8715 40.392 88.5942 40.392C88.3062 40.392 88.0555 40.4507 87.8422 40.568C87.6395 40.6853 87.4848 40.8507 87.3782 41.064C87.2715 41.2773 87.2235 41.5227 87.2342 41.8ZM97.567 47V35.336H102.623L103.519 39.432L104.015 42.312H104.143L104.623 39.432L105.487 35.336H110.543V47H107.407V42.008L107.487 38.392H107.359L106.623 41.784L105.407 47H102.751L101.519 41.704L100.799 38.392H100.655L100.735 42.008V47H97.567ZM116.362 47.16C115.413 47.16 114.602 46.9787 113.93 46.616C113.269 46.2427 112.762 45.7253 112.41 45.064C112.058 44.392 111.882 43.6133 111.882 42.728C111.882 41.7787 112.064 40.9627 112.426 40.28C112.789 39.5867 113.296 39.0587 113.946 38.696C114.608 38.3227 115.376 38.136 116.25 38.136C117.306 38.136 118.17 38.3653 118.842 38.824C119.514 39.272 119.994 39.8907 120.282 40.68C120.581 41.4693 120.677 42.3653 120.57 43.368H114.89C114.88 43.688 114.933 43.9653 115.05 44.2C115.178 44.424 115.354 44.5947 115.578 44.712C115.802 44.8293 116.064 44.888 116.362 44.888C116.714 44.888 116.992 44.8293 117.194 44.712C117.397 44.5947 117.536 44.44 117.61 44.248H120.49C120.416 44.8347 120.192 45.3467 119.818 45.784C119.456 46.2107 118.976 46.5467 118.378 46.792C117.792 47.0373 117.12 47.16 116.362 47.16ZM114.89 41.8L114.634 41.544H117.834L117.562 41.784C117.584 41.4853 117.541 41.2347 117.434 41.032C117.328 40.8293 117.173 40.6747 116.97 40.568C116.768 40.4507 116.528 40.392 116.25 40.392C115.962 40.392 115.712 40.4507 115.498 40.568C115.296 40.6853 115.141 40.8507 115.034 41.064C114.928 41.2773 114.88 41.5227 114.89 41.8ZM115.098 37.384L115.946 35H118.954L117.402 37.384H115.098ZM125.173 47C124.331 47 123.717 46.808 123.333 46.424C122.949 46.0293 122.757 45.4107 122.757 44.568V40.744H121.301V38.296H122.757V36.072L125.813 35.816V38.296H127.397V40.744H125.813V43.992C125.813 44.216 125.872 44.3653 125.989 44.44C126.107 44.5147 126.256 44.552 126.437 44.552H127.397V47H125.173ZM131.903 47.16C131.381 47.16 130.901 47.0587 130.463 46.856C130.037 46.6533 129.669 46.36 129.359 45.976C129.05 45.592 128.81 45.1227 128.639 44.568C128.479 44.0027 128.399 43.3627 128.399 42.648C128.399 41.688 128.543 40.872 128.831 40.2C129.13 39.528 129.541 39.016 130.063 38.664C130.586 38.312 131.199 38.136 131.903 38.136C132.298 38.136 132.661 38.1947 132.991 38.312C133.322 38.4293 133.605 38.5947 133.839 38.808C134.085 39.0213 134.261 39.272 134.367 39.56H134.527L134.639 38.296H137.551V47H134.639L134.527 45.736H134.367C134.207 46.1627 133.903 46.5093 133.455 46.776C133.007 47.032 132.49 47.16 131.903 47.16ZM133.039 44.712C133.381 44.712 133.658 44.6427 133.871 44.504C134.085 44.3653 134.239 44.168 134.335 43.912C134.442 43.656 134.495 43.3573 134.495 43.016V42.28C134.495 41.9173 134.437 41.6133 134.319 41.368C134.213 41.112 134.053 40.92 133.839 40.792C133.637 40.6533 133.397 40.584 133.119 40.584C132.735 40.584 132.426 40.6693 132.191 40.84C131.957 41.0107 131.786 41.2507 131.679 41.56C131.573 41.8693 131.519 42.232 131.519 42.648C131.519 43.0533 131.567 43.416 131.663 43.736C131.759 44.0453 131.919 44.2853 132.143 44.456C132.367 44.6267 132.666 44.712 133.039 44.712ZM143.252 47.16C142.58 47.16 141.972 47.0533 141.428 46.84C140.884 46.6267 140.415 46.3227 140.02 45.928C139.636 45.5227 139.337 45.0427 139.124 44.488C138.921 43.9333 138.82 43.3147 138.82 42.632C138.82 41.9493 138.927 41.3307 139.14 40.776C139.353 40.2213 139.657 39.7467 140.052 39.352C140.447 38.9573 140.921 38.6587 141.476 38.456C142.031 38.2427 142.649 38.136 143.332 38.136C144.121 38.136 144.82 38.2853 145.428 38.584C146.036 38.872 146.516 39.2773 146.868 39.8C147.22 40.3227 147.401 40.9307 147.412 41.624H144.436C144.404 41.3893 144.329 41.1973 144.212 41.048C144.105 40.8987 143.972 40.7867 143.812 40.712C143.652 40.6373 143.471 40.6 143.268 40.6C143.033 40.6 142.831 40.648 142.66 40.744C142.489 40.84 142.351 40.9787 142.244 41.16C142.137 41.3307 142.057 41.544 142.004 41.8C141.951 42.0453 141.924 42.328 141.924 42.648C141.924 43.128 141.977 43.5173 142.084 43.816C142.201 44.1147 142.356 44.3387 142.548 44.488C142.751 44.6267 142.985 44.696 143.252 44.696C143.508 44.696 143.721 44.6533 143.892 44.568C144.063 44.472 144.196 44.3493 144.292 44.2C144.388 44.04 144.447 43.864 144.468 43.672H147.428C147.407 44.376 147.215 44.9893 146.852 45.512C146.489 46.0347 145.999 46.44 145.38 46.728C144.761 47.016 144.052 47.16 143.252 47.16ZM152.659 47.16C151.987 47.16 151.379 47.064 150.835 46.872C150.291 46.6693 149.822 46.376 149.427 45.992C149.032 45.5973 148.728 45.1227 148.515 44.568C148.302 44.0027 148.195 43.3627 148.195 42.648C148.195 41.7413 148.366 40.952 148.707 40.28C149.059 39.608 149.566 39.0853 150.227 38.712C150.899 38.328 151.71 38.136 152.659 38.136C153.331 38.136 153.939 38.2373 154.483 38.44C155.027 38.632 155.496 38.9253 155.891 39.32C156.286 39.704 156.59 40.1733 156.803 40.728C157.016 41.2827 157.123 41.9227 157.123 42.648C157.123 43.544 156.947 44.3333 156.595 45.016C156.254 45.688 155.752 46.216 155.091 46.6C154.43 46.9733 153.619 47.16 152.659 47.16ZM152.659 44.712C152.936 44.712 153.176 44.6427 153.379 44.504C153.592 44.3653 153.752 44.1467 153.859 43.848C153.976 43.5387 154.035 43.1387 154.035 42.648C154.035 42.2747 154.003 41.96 153.939 41.704C153.875 41.4373 153.779 41.224 153.651 41.064C153.534 40.8933 153.39 40.7707 153.219 40.696C153.059 40.6213 152.872 40.584 152.659 40.584C152.382 40.584 152.136 40.6533 151.923 40.792C151.72 40.9307 151.56 41.1493 151.443 41.448C151.336 41.7467 151.283 42.1467 151.283 42.648C151.283 43.0213 151.315 43.3413 151.379 43.608C151.443 43.864 151.534 44.0773 151.651 44.248C151.779 44.408 151.928 44.5253 152.099 44.6C152.27 44.6747 152.456 44.712 152.659 44.712ZM162.372 49.832C161.54 49.832 160.831 49.7147 160.244 49.48C159.657 49.2453 159.199 48.9147 158.868 48.488C158.548 48.072 158.372 47.5867 158.34 47.032H161.284C161.305 47.16 161.364 47.272 161.46 47.368C161.567 47.4747 161.7 47.5547 161.86 47.608C162.031 47.672 162.228 47.704 162.452 47.704C162.857 47.704 163.167 47.6453 163.38 47.528C163.604 47.4213 163.759 47.2667 163.844 47.064C163.929 46.8613 163.972 46.6267 163.972 46.36V45.272H163.828C163.679 45.6453 163.391 45.9493 162.964 46.184C162.548 46.4187 162.063 46.536 161.508 46.536C161.007 46.536 160.553 46.4453 160.148 46.264C159.743 46.072 159.391 45.8 159.092 45.448C158.804 45.0853 158.58 44.648 158.42 44.136C158.26 43.6133 158.18 43.016 158.18 42.344C158.18 41.4587 158.319 40.7013 158.596 40.072C158.873 39.4427 159.263 38.9627 159.764 38.632C160.265 38.3013 160.847 38.136 161.508 38.136C162.02 38.136 162.489 38.248 162.916 38.472C163.353 38.6853 163.657 38.9947 163.828 39.4H163.988L164.068 38.296H167.028V45.72C167.028 46.744 166.836 47.5547 166.452 48.152C166.068 48.76 165.524 49.192 164.82 49.448C164.127 49.704 163.311 49.832 162.372 49.832ZM162.676 44.088C162.975 44.088 163.215 44.0293 163.396 43.912C163.588 43.7947 163.727 43.6293 163.812 43.416C163.908 43.2027 163.956 42.952 163.956 42.664V42.024C163.956 41.704 163.903 41.4373 163.796 41.224C163.7 41.0107 163.561 40.8507 163.38 40.744C163.199 40.6373 162.991 40.584 162.756 40.584C162.404 40.584 162.121 40.6587 161.908 40.808C161.695 40.9573 161.54 41.1653 161.444 41.432C161.348 41.6987 161.3 42.0027 161.3 42.344C161.3 42.6853 161.343 42.9893 161.428 43.256C161.513 43.512 161.657 43.7147 161.86 43.864C162.063 44.0133 162.335 44.088 162.676 44.088ZM168.737 47V38.296H171.681L171.793 39.72H171.921C172.134 39.1867 172.47 38.792 172.929 38.536C173.398 38.2693 173.921 38.136 174.497 38.136C174.924 38.136 175.318 38.2 175.681 38.328C176.054 38.456 176.38 38.6587 176.657 38.936C176.934 39.2133 177.148 39.5813 177.297 40.04C177.457 40.488 177.537 41.032 177.537 41.672V47H174.481V42.344C174.481 41.96 174.438 41.64 174.353 41.384C174.268 41.1173 174.134 40.92 173.953 40.792C173.772 40.664 173.526 40.6 173.217 40.6C172.897 40.6 172.63 40.6747 172.417 40.824C172.214 40.9733 172.06 41.16 171.953 41.384C171.846 41.608 171.793 41.8373 171.793 42.072V47H168.737ZM179.128 47V38.296H182.184V47H179.128ZM180.664 37.576C180.216 37.576 179.842 37.464 179.544 37.24C179.256 37.0053 179.112 36.6747 179.112 36.248C179.112 35.8213 179.256 35.496 179.544 35.272C179.842 35.0373 180.216 34.92 180.664 34.92C181.112 34.92 181.48 35.0373 181.768 35.272C182.066 35.496 182.216 35.8213 182.216 36.248C182.216 36.6747 182.066 37.0053 181.768 37.24C181.48 37.464 181.112 37.576 180.664 37.576ZM187.349 47C186.656 47 186.122 46.8987 185.749 46.696C185.376 46.4933 185.12 46.2107 184.981 45.848C184.842 45.4747 184.773 45.048 184.773 44.568V40.744H183.317V38.296H184.773V36.072L187.829 35.816V38.296H193.733V47H190.677V40.744H187.829V43.992C187.829 44.216 187.888 44.3653 188.005 44.44C188.122 44.5147 188.272 44.552 188.453 44.552H189.413V47H187.349ZM192.213 37.576C191.765 37.576 191.392 37.464 191.093 37.24C190.805 37.0053 190.661 36.6747 190.661 36.248C190.661 35.8213 190.805 35.496 191.093 35.272C191.392 35.0373 191.765 34.92 192.213 34.92C192.661 34.92 193.029 35.0373 193.317 35.272C193.616 35.496 193.765 35.8213 193.765 36.248C193.765 36.6747 193.616 37.0053 193.317 37.24C193.029 37.464 192.661 37.576 192.213 37.576ZM197.552 47L194.72 38.296H198L199.12 43.192L199.408 44.68H199.504L199.792 43.192L200.912 38.296H204.208L201.376 47H197.552ZM208.987 47.16C208.038 47.16 207.227 46.9787 206.555 46.616C205.894 46.2427 205.387 45.7253 205.035 45.064C204.683 44.392 204.507 43.6133 204.507 42.728C204.507 41.7787 204.689 40.9627 205.051 40.28C205.414 39.5867 205.921 39.0587 206.571 38.696C207.233 38.3227 208.001 38.136 208.875 38.136C209.931 38.136 210.795 38.3653 211.467 38.824C212.139 39.272 212.619 39.8907 212.907 40.68C213.206 41.4693 213.302 42.3653 213.195 43.368H207.515C207.505 43.688 207.558 43.9653 207.675 44.2C207.803 44.424 207.979 44.5947 208.203 44.712C208.427 44.8293 208.689 44.888 208.987 44.888C209.339 44.888 209.617 44.8293 209.819 44.712C210.022 44.5947 210.161 44.44 210.235 44.248H213.115C213.041 44.8347 212.817 45.3467 212.443 45.784C212.081 46.2107 211.601 46.5467 211.003 46.792C210.417 47.0373 209.745 47.16 208.987 47.16ZM207.515 41.8L207.259 41.544H210.459L210.187 41.784C210.209 41.4853 210.166 41.2347 210.059 41.032C209.953 40.8293 209.798 40.6747 209.595 40.568C209.393 40.4507 209.153 40.392 208.875 40.392C208.587 40.392 208.337 40.4507 208.123 40.568C207.921 40.6853 207.766 40.8507 207.659 41.064C207.553 41.2773 207.505 41.5227 207.515 41.8Z" fill="black"/>
</svg>
