<svg width="163" height="36" viewBox="0 0 163 36" fill="none" xmlns="http://www.w3.org/2000/svg">
<path d="M17.7929 33.5279C25.1257 35.9111 32.9979 31.5505 35.3761 23.7882C37.7542 16.0259 33.7376 7.80133 26.4048 5.41814C19.072 3.03495 11.1998 7.39558 8.82169 15.1579C6.44358 22.9202 10.4601 31.1447 17.7929 33.5279Z" fill="#D9D9D9"/>
<path d="M9.43062 6.103C9.96246 5.97554 10.5035 6.30987 10.6376 6.85007L12.8271 15.6577C12.9621 16.1982 12.6394 16.7401 12.1064 16.8676C11.5745 16.9951 11.0334 16.66 10.8994 16.1196L9.28218 9.6196C8.57423 10.8536 7.75019 12.5291 7.23921 14.477C6.34337 17.8952 6.44753 22.0412 9.98921 25.9419C13.5901 29.9078 17.5673 30.7923 20.6562 30.7065C22.212 30.6632 23.5481 30.3718 24.4931 30.0913C24.9641 29.9513 25.3359 29.8148 25.5849 29.7153C25.7094 29.6658 25.8033 29.6259 25.8632 29.5991C25.8932 29.5856 25.9157 29.5748 25.9287 29.5688C25.9354 29.5658 25.9393 29.564 25.9414 29.563L25.9433 29.562L25.9423 29.563C25.9433 29.5651 25.9634 29.6073 26.3837 30.4702C26.8 31.3249 26.8229 31.3755 26.8242 31.3784L26.8232 31.3794L26.8203 31.3803C26.8173 31.3815 26.8144 31.3837 26.8115 31.3852C26.8045 31.3886 26.795 31.3926 26.7832 31.3979C26.7602 31.4087 26.7283 31.4237 26.6875 31.4419C26.6055 31.4781 26.4886 31.5281 26.3398 31.5874C26.0429 31.7061 25.6157 31.8623 25.081 32.021C24.014 32.3378 22.5062 32.6672 20.7412 32.7163C17.1872 32.8151 12.604 31.7726 8.53316 27.2895C4.40319 22.7412 4.29736 17.8196 5.31636 13.9331C5.87341 11.8091 6.77782 9.96017 7.53511 8.62936L1.23824 10.1382C0.705332 10.2655 0.164203 9.93047 0.0302277 9.39011C-0.103534 8.84977 0.219029 8.30861 0.751907 8.18112L9.43062 6.103ZM17.5009 2.54147C21.0249 2.35284 25.5876 3.28567 29.6875 7.68112C33.8233 12.1147 34.2395 16.9817 33.4306 20.9975C32.9215 23.5266 31.9238 25.7369 31.0771 27.3217L37.5058 25.8198C38.0398 25.6951 38.5789 26.033 38.7099 26.5737C38.8407 27.1144 38.5133 27.654 37.9804 27.7788L29.2812 29.811C28.7484 29.9354 28.21 29.5977 28.0791 29.0571L25.9443 20.2446C25.8136 19.704 26.1409 19.1652 26.6748 19.0405C27.2078 18.9157 27.7469 19.2526 27.8779 19.7934L29.4199 26.1616C30.1854 24.7033 31.0384 22.7629 31.4804 20.5708C32.1923 17.0328 31.8306 12.8886 28.249 9.04831C24.63 5.16969 20.6857 4.38491 17.6337 4.54831C16.0948 4.63069 14.7777 4.95549 13.8457 5.26022C13.3817 5.41223 13.0155 5.55864 12.7705 5.66452C12.6487 5.71729 12.556 5.76019 12.497 5.78854C12.467 5.80272 12.4456 5.81338 12.4326 5.81979C12.4267 5.82296 12.4219 5.82557 12.4199 5.82663C12.4199 5.82663 12.4209 5.8252 11.955 4.93112C11.491 4.04045 11.4892 4.03661 11.4892 4.03659L11.4912 4.03561L11.4941 4.03464C11.497 4.03346 11.5 4.03147 11.5029 4.02975C11.5098 4.02628 11.5185 4.02164 11.5293 4.01608C11.5523 4.00468 11.585 3.98944 11.625 3.97018C11.7059 3.93168 11.8208 3.87822 11.9677 3.81491C12.2607 3.68835 12.6819 3.52069 13.2089 3.34811C14.2619 3.00369 15.751 2.63513 17.5009 2.54147Z" fill="black"/>
<path d="M110.941 23.3188C111.453 23.3189 111.922 23.431 112.349 23.6548C112.786 23.8681 113.09 24.1782 113.261 24.5835H113.421L113.501 23.479H116.461V30.9028C116.461 31.9268 116.269 32.7381 115.885 33.3354C115.501 33.9432 114.957 34.3754 114.253 34.6313C113.56 34.8873 112.744 35.0151 111.805 35.0151C110.973 35.0151 110.264 34.8972 109.677 34.6626C109.09 34.4279 108.632 34.0979 108.301 33.6714C107.981 33.2554 107.805 32.7699 107.773 32.2153H110.717C110.738 32.3431 110.797 32.4553 110.893 32.5512C111 32.6579 111.133 32.7382 111.293 32.7915C111.464 32.8554 111.661 32.8872 111.885 32.8872C112.29 32.8872 112.6 32.8287 112.813 32.7114C113.037 32.6047 113.192 32.4492 113.277 32.2466C113.362 32.0441 113.405 31.8097 113.405 31.5434V30.4546H113.261C113.112 30.8277 112.824 31.132 112.397 31.3667C111.982 31.6013 111.496 31.7192 110.941 31.7192C110.44 31.7192 109.986 31.628 109.581 31.4467C109.176 31.2548 108.824 30.9831 108.525 30.6313C108.237 30.2686 108.012 29.8308 107.852 29.3188C107.693 28.7962 107.613 28.1987 107.613 27.5268C107.613 26.6417 107.752 25.8846 108.029 25.2553C108.306 24.626 108.696 24.1456 109.197 23.8149C109.698 23.4843 110.28 23.3188 110.941 23.3188ZM65.6826 23.3188C66.7386 23.3188 67.6033 23.5486 68.2753 24.0073C68.9471 24.4552 69.4268 25.0737 69.7148 25.8628C70.0138 26.6521 70.1099 27.5485 70.0029 28.5512H64.3232C64.3132 28.8711 64.3664 29.1486 64.4834 29.3833C64.6113 29.607 64.7869 29.7778 65.0107 29.895C65.2347 30.0123 65.4969 30.0708 65.7949 30.0708C66.1469 30.0708 66.4249 30.0123 66.6269 29.895C66.8299 29.7777 66.9689 29.6231 67.0429 29.4311H69.9228C69.8488 30.0178 69.6249 30.53 69.2509 30.9673C68.889 31.3939 68.4084 31.7298 67.8105 31.9751C67.2246 32.2203 66.5527 32.3432 65.7949 32.3432C64.8461 32.3432 64.0352 32.1619 63.3632 31.7993C62.7022 31.426 62.1947 30.9079 61.8427 30.2466C61.4909 29.5747 61.3154 28.7957 61.3154 27.9106C61.3154 26.9615 61.4974 26.1459 61.8593 25.4633C62.2223 24.7701 62.729 24.2421 63.3789 23.8794C64.0408 23.5061 64.8087 23.3189 65.6826 23.3188ZM81.3359 23.3188C81.7308 23.3188 82.0939 23.3774 82.4238 23.4946C82.7548 23.6119 83.0384 23.7774 83.2724 23.9907C83.5183 24.2039 83.6938 24.4548 83.7998 24.7426H83.9599L84.0722 23.479H86.9843V32.1831H84.0722L83.9599 30.9194H83.7998C83.6397 31.3459 83.3355 31.6928 82.8877 31.9594C82.4398 32.2153 81.9227 32.3432 81.3359 32.3432C80.814 32.3432 80.3344 32.2412 79.8964 32.0385C79.4704 31.8358 79.102 31.5427 78.792 31.1587C78.4831 30.7748 78.2432 30.3058 78.0722 29.7514C77.9122 29.1861 77.832 28.5452 77.832 27.8305C77.832 26.8709 77.9758 26.0551 78.2636 25.3833C78.5626 24.7113 78.9741 24.1991 79.4961 23.8471C80.019 23.4951 80.6319 23.3188 81.3359 23.3188ZM92.7646 23.3188C93.5536 23.3188 94.2533 23.4684 94.8613 23.7671C95.4691 24.055 95.9488 24.4604 96.3007 24.9829C96.6527 25.5056 96.8337 26.1138 96.8447 26.8071H93.8691C93.8371 26.5724 93.7615 26.3802 93.6445 26.2309C93.5375 26.0818 93.4049 25.9696 93.2451 25.895C93.0851 25.8203 92.9041 25.7827 92.7011 25.7827C92.4661 25.7827 92.2637 25.8312 92.0927 25.9272C91.9219 26.0232 91.7837 26.162 91.6767 26.3432C91.5698 26.5139 91.4895 26.727 91.4365 26.9829C91.3835 27.2281 91.3574 27.5107 91.3574 27.8305C91.3574 28.3105 91.4096 28.7008 91.5166 28.9995C91.6335 29.298 91.7895 29.5221 91.9814 29.6714C92.1842 29.8098 92.4179 29.8793 92.6845 29.8794C92.9405 29.8794 93.1542 29.8367 93.3252 29.7514C93.496 29.6555 93.6286 29.5324 93.7246 29.3833C93.8206 29.2233 93.8803 29.0469 93.9013 28.8549H96.8613C96.8403 29.5589 96.648 30.1721 96.2851 30.6948C95.9222 31.2173 95.4322 31.6226 94.8134 31.9106C94.1944 32.1986 93.4845 32.3432 92.6845 32.3432C92.0128 32.3432 91.4051 32.2361 90.8613 32.0229C90.3173 31.8096 89.8481 31.5055 89.4531 31.1108C89.0691 30.7056 88.7696 30.226 88.5566 29.6714C88.3536 29.1167 88.2529 28.4976 88.2529 27.8149C88.2529 27.1324 88.3603 26.514 88.5732 25.9594C88.7862 25.4047 89.0903 24.9293 89.4853 24.5346C89.8802 24.1401 90.3543 23.8418 90.9091 23.6391C91.464 23.4259 92.0818 23.3189 92.7646 23.3188ZM102.092 23.3188C102.764 23.3188 103.372 23.4199 103.916 23.6225C104.46 23.8145 104.929 24.1087 105.324 24.5034C105.719 24.8873 106.023 25.3562 106.236 25.9106C106.449 26.4652 106.556 27.1054 106.556 27.8305C106.556 28.7264 106.38 29.5161 106.028 30.1987C105.687 30.8706 105.185 31.3987 104.524 31.7827C103.863 32.156 103.052 32.3432 102.092 32.3432C101.42 32.3432 100.811 32.2471 100.268 32.0551C99.7238 31.8525 99.2552 31.559 98.8603 31.1753C98.4654 30.7807 98.1612 30.3059 97.9482 29.7514C97.7352 29.1861 97.6279 28.5452 97.6279 27.8305C97.6279 26.9242 97.7988 26.1351 98.1396 25.4633C98.4916 24.7913 98.9991 24.2683 99.6601 23.895C100.332 23.5111 101.143 23.3188 102.092 23.3188ZM158.308 23.3188C159.364 23.3188 160.228 23.5486 160.9 24.0073C161.572 24.4552 162.052 25.0737 162.34 25.8628C162.639 26.6521 162.735 27.5485 162.628 28.5512H156.948C156.938 28.8711 156.991 29.1486 157.108 29.3833C157.236 29.607 157.412 29.7778 157.636 29.895C157.86 30.0123 158.122 30.0708 158.42 30.0708C158.772 30.0708 159.05 30.0123 159.252 29.895C159.455 29.7777 159.594 29.6231 159.668 29.4311H162.548C162.474 30.0178 162.25 30.53 161.876 30.9673C161.514 31.3939 161.033 31.7298 160.436 31.9751C159.85 32.2202 159.178 32.3432 158.42 32.3432C157.471 32.3432 156.66 32.1619 155.988 31.7993C155.327 31.426 154.82 30.9079 154.468 30.2466C154.116 29.5747 153.94 28.7957 153.94 27.9106C153.94 26.9615 154.122 26.1459 154.484 25.4633C154.847 24.7701 155.354 24.2421 156.004 23.8794C156.666 23.5061 157.434 23.3189 158.308 23.3188ZM52.9521 24.6147L53.4482 27.4946H53.5761L54.0556 24.6147L54.9199 20.519H59.9755V32.1831H56.8398V27.1909L56.9199 23.5747H56.792L56.0556 26.9673L54.8398 32.1831H52.1836L50.9521 26.8872L50.2324 23.5747H50.0878L50.1679 27.1909V32.1831H47V20.519H52.0556L52.9521 24.6147ZM75.2461 23.479H76.83V25.9272H75.2461V29.1753C75.2461 29.3989 75.3051 29.5478 75.4218 29.6225C75.5398 29.6972 75.6891 29.7348 75.8701 29.7348H76.83V32.1831H74.6064C73.7644 32.1831 73.1496 31.9909 72.7656 31.6069C72.3818 31.2123 72.1905 30.5937 72.1904 29.7514V25.9272H70.7343V23.479H72.1904V21.2553L75.2461 20.9995V23.479ZM123.93 23.3188C124.357 23.3188 124.751 23.3832 125.114 23.5112C125.487 23.6392 125.813 23.8415 126.09 24.1186C126.367 24.3959 126.581 24.7644 126.73 25.2231C126.89 25.6711 126.97 26.2151 126.97 26.8549V32.1831H123.914V27.5268C123.914 27.1429 123.871 26.8228 123.786 26.5669C123.701 26.3002 123.567 26.1031 123.386 25.9751C123.205 25.8472 122.959 25.7827 122.65 25.7827C122.33 25.7827 122.063 25.858 121.85 26.0073C121.647 26.1565 121.493 26.343 121.386 26.5669C121.279 26.7909 121.226 27.0206 121.226 27.2553V32.1831H118.17V23.479H121.114L121.226 24.9028H121.354C121.567 24.3697 121.903 23.9752 122.362 23.7192C122.831 23.4526 123.354 23.3189 123.93 23.3188ZM131.617 32.1831H128.561V23.479H131.617V32.1831ZM137.262 23.479H143.166V32.1831H140.11V25.9272H137.262V29.1753C137.262 29.3991 137.321 29.5479 137.438 29.6225C137.555 29.6971 137.705 29.7348 137.886 29.7348H138.846V32.1831H136.782C136.089 32.1831 135.555 32.0821 135.182 31.8794C134.809 31.6767 134.553 31.3934 134.414 31.0307C134.275 30.6576 134.206 30.2312 134.206 29.7514V25.9272H132.75V23.479H134.206V21.2553L137.262 20.9995V23.479ZM148.553 28.3755L148.841 29.8628H148.936L149.225 28.3755L150.345 23.479H153.641L150.809 32.1831H146.985L144.153 23.479H147.433L148.553 28.3755ZM82.5517 25.7671C82.1679 25.7671 81.8589 25.8523 81.624 26.0229C81.3901 26.1935 81.2193 26.4335 81.1123 26.7426C81.0063 27.0518 80.9521 27.4147 80.9521 27.8305C80.9521 28.2358 80.9997 28.5994 81.0957 28.9194C81.1917 29.2286 81.3522 29.4685 81.5761 29.6391C81.8 29.8097 82.0989 29.8949 82.4716 29.895C82.8135 29.895 83.0907 29.8256 83.3037 29.687C83.5176 29.5483 83.6715 29.351 83.7675 29.0952C83.8745 28.8392 83.9277 28.54 83.9277 28.1987V27.4633C83.9277 27.1007 83.8699 26.7965 83.7519 26.5512C83.646 26.2954 83.4862 26.1031 83.2724 25.9751C83.0704 25.8364 82.8297 25.7671 82.5517 25.7671ZM102.092 25.7671C101.815 25.7671 101.569 25.8365 101.356 25.9751C101.153 26.1138 100.993 26.3326 100.876 26.6313C100.769 26.9299 100.716 27.3296 100.716 27.8305C100.716 28.2038 100.747 28.5248 100.811 28.7915C100.875 29.0473 100.967 29.2605 101.084 29.4311C101.212 29.5911 101.361 29.708 101.532 29.7827C101.703 29.8573 101.889 29.895 102.092 29.895C102.369 29.895 102.609 29.8255 102.811 29.687C103.024 29.5483 103.185 29.3294 103.292 29.0307C103.409 28.7215 103.468 28.3211 103.468 27.8305C103.468 27.4575 103.436 27.143 103.372 26.8872C103.308 26.6205 103.212 26.4066 103.084 26.2466C102.967 26.0762 102.823 25.954 102.652 25.8794C102.492 25.8047 102.305 25.7671 102.092 25.7671ZM112.189 25.7671C111.837 25.7671 111.554 25.8414 111.341 25.9907C111.128 26.1399 110.973 26.3481 110.877 26.6147C110.781 26.8814 110.733 27.1856 110.733 27.5268C110.733 27.8681 110.776 28.1722 110.861 28.4389C110.946 28.6949 111.09 28.898 111.293 29.0473C111.496 29.1966 111.768 29.271 112.109 29.271C112.408 29.2709 112.648 29.2124 112.829 29.0952C113.021 28.9779 113.16 28.8124 113.245 28.5991C113.341 28.3858 113.389 28.1351 113.389 27.8471V27.2065C113.389 26.8867 113.336 26.6199 113.229 26.4067C113.134 26.1936 112.994 26.0339 112.813 25.9272C112.633 25.8206 112.424 25.7671 112.189 25.7671ZM158.308 25.5747C158.02 25.5747 157.77 25.6342 157.556 25.7514C157.354 25.8687 157.199 26.0335 157.092 26.2466C157.02 26.3917 156.976 26.5523 156.958 26.727H159.621C159.611 26.5317 159.569 26.3611 159.492 26.2153C159.386 26.0127 159.231 25.8581 159.028 25.7514C158.826 25.6341 158.586 25.5747 158.308 25.5747ZM65.6826 25.5747C65.3947 25.5747 65.1445 25.6342 64.9306 25.7514C64.7289 25.8687 64.5737 26.0335 64.4668 26.2466C64.3946 26.3917 64.3514 26.5523 64.333 26.727H66.9961C66.9857 26.5317 66.944 26.3611 66.8671 26.2153C66.7612 26.0127 66.6061 25.8581 66.4033 25.7514C66.2013 25.6341 65.9606 25.5747 65.6826 25.5747ZM130.097 20.103C130.545 20.103 130.913 20.2199 131.201 20.4546C131.499 20.6786 131.649 21.0044 131.649 21.4311C131.649 21.8578 131.499 22.1886 131.201 22.4233C130.913 22.6473 130.545 22.7592 130.097 22.7592C129.649 22.7592 129.274 22.6473 128.977 22.4233C128.689 22.1886 128.545 21.8577 128.545 21.4311C128.545 21.0045 128.689 20.6786 128.977 20.4546C129.274 20.2199 129.649 20.1031 130.097 20.103ZM141.646 20.103C142.094 20.1031 142.462 20.2201 142.75 20.4546C143.049 20.6786 143.198 21.0044 143.198 21.4311C143.198 21.8578 143.049 22.1886 142.75 22.4233C142.462 22.6471 142.094 22.7592 141.646 22.7592C141.199 22.7592 140.825 22.6471 140.526 22.4233C140.238 22.1886 140.094 21.8578 140.094 21.4311C140.094 21.0044 140.238 20.6786 140.526 20.4546C140.825 20.2201 141.199 20.103 141.646 20.103ZM66.8349 22.5669H64.5312L65.3789 20.1831H68.3867L66.8349 22.5669ZM98.0048 10.3188C98.5379 10.3189 99.0178 10.42 99.4443 10.6225C99.8709 10.8252 100.239 11.1194 100.549 11.5034C100.858 11.8873 101.093 12.3621 101.253 12.9272C101.423 13.4817 101.509 14.1162 101.509 14.8305C101.509 15.7798 101.364 16.5961 101.076 17.2788C100.788 17.9507 100.378 18.4629 99.8447 18.8149C99.3221 19.1668 98.7087 19.3432 98.0048 19.3432C97.6208 19.3432 97.2573 19.2847 96.916 19.1674C96.5855 19.0502 96.2979 18.8845 96.0527 18.6714C95.818 18.4474 95.6466 18.1966 95.54 17.9194H95.4121V21.8549H92.3564V10.479H95.2685L95.3808 11.7426H95.54C95.7 11.3161 96.0044 10.9752 96.4521 10.7192C96.9001 10.4525 97.4181 10.3188 98.0048 10.3188ZM69.3857 10.3188C70.4416 10.3189 71.3055 10.5486 71.9775 11.0073C72.6494 11.4553 73.1299 12.0736 73.4179 12.8628C73.7165 13.6521 73.8116 14.5485 73.705 15.5512H68.0253C68.0147 15.8711 68.0681 16.1486 68.1855 16.3833C68.3135 16.6072 68.4899 16.7777 68.7138 16.895C68.9377 17.0121 69.1986 17.0707 69.497 17.0708C69.8489 17.0708 70.1264 17.0122 70.3291 16.895C70.5316 16.7777 70.6704 16.623 70.7451 16.4311H73.6259C73.5512 17.0178 73.3264 17.53 72.9531 17.9673C72.5904 18.3938 72.1107 18.7298 71.5136 18.9751C70.9269 19.2204 70.2543 19.3432 69.497 19.3432C68.5478 19.3432 67.7373 19.1619 67.0654 18.7993C66.404 18.426 65.8979 17.9079 65.5459 17.2466C65.1939 16.5746 65.0175 15.7958 65.0175 14.9106C65.0176 13.9616 65.1989 13.1459 65.5615 12.4633C65.924 11.7702 66.4306 11.2421 67.081 10.8794C67.7423 10.5061 68.511 10.3188 69.3857 10.3188ZM84.9755 10.3188C85.3701 10.3188 85.7329 10.3774 86.0634 10.4946C86.3941 10.6119 86.6775 10.7774 86.9121 10.9907C87.1573 11.2039 87.3328 11.4548 87.4394 11.7426H87.5996L87.7119 10.479H90.624V19.1831H87.7119L87.5996 17.9194H87.4394C87.2794 18.3459 86.9751 18.6928 86.5273 18.9594C86.0794 19.2153 85.562 19.3432 84.9755 19.3432C84.4531 19.3432 83.9734 19.2412 83.5361 19.0385C83.1095 18.8358 82.741 18.5427 82.4316 18.1587C82.1225 17.7748 81.8825 17.3058 81.7119 16.7514C81.5519 16.1861 81.4716 15.5452 81.4716 14.8305C81.4717 13.8709 81.6154 13.0551 81.9033 12.3833C82.202 11.7113 82.6131 11.1991 83.1357 10.8471C83.6584 10.4952 84.2716 10.3188 84.9755 10.3188ZM111.511 10.3188C112.567 10.3189 113.431 10.5486 114.102 11.0073C114.774 11.4553 115.255 12.0736 115.543 12.8628C115.842 13.6521 115.937 14.5485 115.83 15.5512H110.15C110.14 15.8711 110.193 16.1486 110.311 16.3833C110.438 16.6072 110.615 16.7777 110.839 16.895C111.063 17.0121 111.324 17.0707 111.622 17.0708C111.974 17.0708 112.251 17.0122 112.454 16.895C112.657 16.7777 112.795 16.623 112.87 16.4311H115.751C115.676 17.0178 115.451 17.53 115.078 17.9673C114.715 18.3938 114.236 18.7298 113.639 18.9751C113.052 19.2204 112.379 19.3432 111.622 19.3432C110.673 19.3432 109.862 19.1619 109.19 18.7993C108.529 18.426 108.023 17.9079 107.671 17.2466C107.319 16.5746 107.143 15.7958 107.143 14.9106C107.143 13.9616 107.324 13.1459 107.686 12.4633C108.049 11.7702 108.556 11.2421 109.206 10.8794C109.867 10.5061 110.636 10.3188 111.511 10.3188ZM53.7763 10.3032H50.4638V19.1831H47.2158V10.3032H44V7.51901H53.7763V10.3032ZM58.0214 11.9028H58.1494C58.3628 11.3695 58.6996 10.9752 59.1582 10.7192C59.6274 10.4526 60.1497 10.3189 60.7255 10.3188C61.1522 10.3188 61.5475 10.3832 61.9101 10.5112C62.2833 10.6392 62.6085 10.8415 62.8857 11.1186C63.1631 11.3959 63.376 11.7644 63.5253 12.2231C63.6853 12.6711 63.7656 13.215 63.7656 13.8549V19.1831H60.7099V14.5268C60.7099 14.1429 60.6674 13.8228 60.582 13.5669C60.4967 13.3002 60.363 13.1031 60.1816 12.9751C60.0003 12.8471 59.7546 12.7827 59.4453 12.7827C59.1255 12.7828 58.8588 12.8581 58.6455 13.0073C58.443 13.1565 58.2882 13.343 58.1816 13.5669C58.075 13.7909 58.0214 14.0206 58.0214 14.2553V19.1831H54.9658V7.51901H58.0214V11.9028ZM80.7255 13.2309H80.1806C79.6261 13.231 79.1939 13.3053 78.8847 13.4546C78.5757 13.5932 78.3575 13.8016 78.2295 14.0786C78.1122 14.3452 78.0527 14.6762 78.0527 15.0708V19.1831H74.997V10.479H77.7646L77.8769 11.7426H77.9892C78.1812 11.1882 78.4745 10.8204 78.8691 10.6391C79.2744 10.4578 79.7331 10.3667 80.2451 10.3667H80.7255V13.2309ZM105.881 19.1831H102.825V10.479H105.881V19.1831ZM86.1914 12.7671C85.8075 12.7671 85.4983 12.8523 85.2636 13.0229C85.0291 13.1935 84.8586 13.4335 84.7519 13.7426C84.6454 14.0518 84.5918 14.4147 84.5918 14.8305C84.5918 15.2358 84.6393 15.5994 84.7353 15.9194C84.8313 16.2286 84.9918 16.4685 85.2158 16.6391C85.4397 16.8097 85.7382 16.8949 86.1113 16.895C86.4526 16.895 86.73 16.8256 86.9433 16.687C87.1566 16.5483 87.3112 16.351 87.4072 16.0952C87.5139 15.8392 87.5673 15.54 87.5673 15.1987V14.4633C87.5673 14.1007 87.5089 13.7965 87.3916 13.5512C87.285 13.2954 87.1253 13.1031 86.9121 12.9751C86.7095 12.8364 86.4688 12.7671 86.1914 12.7671ZM96.8681 12.7671C96.5376 12.7671 96.26 12.8364 96.0361 12.9751C95.8229 13.1137 95.6632 13.3111 95.5566 13.5669C95.4606 13.8229 95.4121 14.122 95.4121 14.4633V15.1987C95.4121 15.5614 95.4655 15.8714 95.5722 16.1274C95.6895 16.3726 95.8501 16.564 96.0527 16.7026C96.2659 16.8305 96.5108 16.8949 96.788 16.895C97.172 16.895 97.4821 16.8098 97.7168 16.6391C97.9512 16.4685 98.1218 16.2285 98.2285 15.9194C98.3351 15.5994 98.3886 15.2358 98.3886 14.8305C98.3886 14.4147 98.3401 14.0518 98.2441 13.7426C98.1481 13.4336 97.9885 13.1935 97.7646 13.0229C97.5406 12.8522 97.2414 12.7671 96.8681 12.7671ZM111.511 12.5747C111.223 12.5747 110.972 12.6341 110.759 12.7514C110.556 12.8686 110.401 13.0335 110.295 13.2466C110.222 13.3917 110.178 13.5523 110.16 13.727H112.823C112.813 13.5316 112.771 13.3611 112.694 13.2153C112.588 13.0127 112.433 12.8581 112.23 12.7514C112.028 12.6342 111.788 12.5747 111.511 12.5747ZM69.3857 12.5747C69.0977 12.5747 68.847 12.6341 68.6337 12.7514C68.4312 12.8686 68.2765 13.0335 68.1699 13.2466C68.0973 13.3917 68.0534 13.5523 68.0351 13.727H70.6982C70.6877 13.5316 70.6459 13.3611 70.5693 13.2153C70.4626 13.0127 70.308 12.8581 70.1054 12.7514C69.9028 12.6342 69.6629 12.5747 69.3857 12.5747ZM104.361 7.103C104.809 7.10302 105.177 7.22011 105.465 7.45456C105.764 7.67856 105.913 8.00442 105.913 8.43112C105.913 8.85776 105.763 9.18863 105.465 9.42331C105.177 9.6471 104.809 9.75923 104.361 9.75925C103.913 9.75925 103.54 9.64723 103.241 9.42331C102.953 9.18863 102.81 8.85776 102.81 8.43112C102.81 8.00442 102.953 7.67856 103.241 7.45456C103.54 7.21998 103.913 7.103 104.361 7.103ZM70.5371 9.56686H68.2334L69.081 7.18307H72.0898L70.5371 9.56686Z" fill="black"/>
<path d="M44.175 5.103L46.044 0H46.884L48.746 5.103H48.123L46.709 1.113L46.485 0.469H46.443L46.226 1.113L44.805 5.103H44.175ZM45.183 3.85L45.274 3.36H47.647L47.738 3.85H45.183Z" fill="black"/>
<path d="M50.7068 5.173C50.4782 5.173 50.2728 5.145 50.0908 5.089C49.9088 5.033 49.7525 4.956 49.6218 4.858C49.4912 4.75533 49.3908 4.634 49.3208 4.494C49.2508 4.34933 49.2135 4.19067 49.2088 4.018H49.7688C49.7782 4.18133 49.8225 4.319 49.9018 4.431C49.9858 4.53833 50.0978 4.61767 50.2378 4.669C50.3825 4.72033 50.5435 4.746 50.7208 4.746C51.0055 4.746 51.2225 4.69233 51.3718 4.585C51.5258 4.47767 51.6028 4.326 51.6028 4.13C51.6028 3.98067 51.5702 3.86633 51.5048 3.787C51.4395 3.703 51.3392 3.63767 51.2038 3.591C51.0685 3.54433 50.8912 3.50467 50.6718 3.472C50.3685 3.43 50.1165 3.37167 49.9158 3.297C49.7152 3.22233 49.5635 3.11733 49.4608 2.982C49.3582 2.842 49.3068 2.66 49.3068 2.436C49.3068 2.22133 49.3652 2.03467 49.4818 1.876C49.5985 1.71267 49.7618 1.58667 49.9718 1.498C50.1818 1.40467 50.4268 1.358 50.7068 1.358C50.9915 1.358 51.2365 1.40467 51.4418 1.498C51.6472 1.58667 51.8082 1.715 51.9248 1.883C52.0415 2.04633 52.1022 2.24233 52.1068 2.471H51.5538C51.5445 2.30767 51.5025 2.177 51.4278 2.079C51.3578 1.97633 51.2598 1.904 51.1338 1.862C51.0125 1.81533 50.8678 1.792 50.6998 1.792C50.4385 1.792 50.2355 1.84567 50.0908 1.953C49.9462 2.06033 49.8738 2.20267 49.8738 2.38C49.8738 2.51533 49.9088 2.625 49.9788 2.709C50.0488 2.78833 50.1562 2.85133 50.3008 2.898C50.4502 2.94 50.6368 2.97733 50.8608 3.01C51.1362 3.04733 51.3718 3.10333 51.5678 3.178C51.7685 3.25267 51.9202 3.36233 52.0228 3.507C52.1255 3.647 52.1768 3.83833 52.1768 4.081C52.1768 4.31433 52.1162 4.51267 51.9948 4.676C51.8735 4.83467 51.7008 4.95833 51.4768 5.047C51.2575 5.131 51.0008 5.173 50.7068 5.173Z" fill="black"/>
<path d="M54.3504 5.173C54.1217 5.173 53.9164 5.145 53.7344 5.089C53.5524 5.033 53.3961 4.956 53.2654 4.858C53.1347 4.75533 53.0344 4.634 52.9644 4.494C52.8944 4.34933 52.8571 4.19067 52.8524 4.018H53.4124C53.4217 4.18133 53.4661 4.319 53.5454 4.431C53.6294 4.53833 53.7414 4.61767 53.8814 4.669C54.0261 4.72033 54.1871 4.746 54.3644 4.746C54.6491 4.746 54.8661 4.69233 55.0154 4.585C55.1694 4.47767 55.2464 4.326 55.2464 4.13C55.2464 3.98067 55.2137 3.86633 55.1484 3.787C55.0831 3.703 54.9827 3.63767 54.8474 3.591C54.7121 3.54433 54.5347 3.50467 54.3154 3.472C54.0121 3.43 53.7601 3.37167 53.5594 3.297C53.3587 3.22233 53.2071 3.11733 53.1044 2.982C53.0017 2.842 52.9504 2.66 52.9504 2.436C52.9504 2.22133 53.0087 2.03467 53.1254 1.876C53.2421 1.71267 53.4054 1.58667 53.6154 1.498C53.8254 1.40467 54.0704 1.358 54.3504 1.358C54.6351 1.358 54.8801 1.40467 55.0854 1.498C55.2907 1.58667 55.4517 1.715 55.5684 1.883C55.6851 2.04633 55.7457 2.24233 55.7504 2.471H55.1974C55.1881 2.30767 55.1461 2.177 55.0714 2.079C55.0014 1.97633 54.9034 1.904 54.7774 1.862C54.6561 1.81533 54.5114 1.792 54.3434 1.792C54.0821 1.792 53.8791 1.84567 53.7344 1.953C53.5897 2.06033 53.5174 2.20267 53.5174 2.38C53.5174 2.51533 53.5524 2.625 53.6224 2.709C53.6924 2.78833 53.7997 2.85133 53.9444 2.898C54.0937 2.94 54.2804 2.97733 54.5044 3.01C54.7797 3.04733 55.0154 3.10333 55.2114 3.178C55.4121 3.25267 55.5637 3.36233 55.6664 3.507C55.7691 3.647 55.8204 3.83833 55.8204 4.081C55.8204 4.31433 55.7597 4.51267 55.6384 4.676C55.5171 4.83467 55.3444 4.95833 55.1204 5.047C54.9011 5.131 54.6444 5.173 54.3504 5.173Z" fill="black"/>
<path d="M58.2539 5.166C57.9879 5.166 57.7453 5.12167 57.5259 5.033C57.3113 4.94433 57.1246 4.816 56.9659 4.648C56.8119 4.48 56.6906 4.28167 56.6019 4.053C56.5179 3.81967 56.4759 3.56067 56.4759 3.276C56.4759 2.898 56.5483 2.56667 56.6929 2.282C56.8376 1.99733 57.0429 1.77567 57.3089 1.617C57.5796 1.45367 57.8946 1.372 58.2539 1.372C58.5199 1.372 58.7603 1.41633 58.9749 1.505C59.1943 1.589 59.3809 1.715 59.5349 1.883C59.6889 2.051 59.8079 2.25167 59.8919 2.485C59.9759 2.71833 60.0179 2.97967 60.0179 3.269C60.0179 3.64233 59.9456 3.97133 59.8009 4.256C59.6609 4.54067 59.4579 4.76467 59.1919 4.928C58.9259 5.08667 58.6133 5.166 58.2539 5.166ZM58.2539 4.676C58.4919 4.676 58.6996 4.62233 58.8769 4.515C59.0543 4.403 59.1919 4.242 59.2899 4.032C59.3926 3.81733 59.4439 3.563 59.4439 3.269C59.4439 3.04967 59.4159 2.85367 59.3599 2.681C59.3039 2.50367 59.2246 2.35433 59.1219 2.233C59.0193 2.107 58.8956 2.01133 58.7509 1.946C58.6063 1.88067 58.4406 1.848 58.2539 1.848C58.0159 1.848 57.8059 1.90633 57.6239 2.023C57.4466 2.135 57.3066 2.296 57.2039 2.506C57.1059 2.716 57.0569 2.97267 57.0569 3.276C57.0569 3.49067 57.0826 3.68667 57.1339 3.864C57.1899 4.03667 57.2693 4.18367 57.3719 4.305C57.4793 4.42633 57.6076 4.51967 57.7569 4.585C57.9063 4.64567 58.0719 4.676 58.2539 4.676Z" fill="black"/>
<path d="M62.5466 5.166C62.2806 5.166 62.0379 5.12167 61.8186 5.033C61.6039 4.93967 61.4196 4.81133 61.2656 4.648C61.1116 4.48 60.9926 4.28167 60.9086 4.053C60.8246 3.81967 60.7826 3.55833 60.7826 3.269C60.7826 2.98433 60.8246 2.72767 60.9086 2.499C60.9926 2.26567 61.1139 2.065 61.2726 1.897C61.4312 1.729 61.6202 1.60067 61.8396 1.512C62.0589 1.41867 62.3016 1.372 62.5676 1.372C62.8522 1.372 63.1066 1.42333 63.3306 1.526C63.5546 1.62867 63.7366 1.77333 63.8766 1.96C64.0166 2.14667 64.1006 2.36367 64.1286 2.611H63.5756C63.5382 2.443 63.4706 2.303 63.3726 2.191C63.2746 2.079 63.1556 1.995 63.0156 1.939C62.8756 1.883 62.7216 1.855 62.5536 1.855C62.3622 1.855 62.1919 1.89 62.0426 1.96C61.8979 2.02533 61.7742 2.121 61.6716 2.247C61.5689 2.373 61.4896 2.52233 61.4336 2.695C61.3822 2.86767 61.3566 3.06133 61.3566 3.276C61.3566 3.57 61.4056 3.822 61.5036 4.032C61.6062 4.242 61.7462 4.403 61.9236 4.515C62.1009 4.627 62.3086 4.683 62.5466 4.683C62.7379 4.683 62.9059 4.648 63.0506 4.578C63.1952 4.508 63.3142 4.41467 63.4076 4.298C63.5056 4.17667 63.5686 4.032 63.5966 3.864H64.1496C64.1216 4.12533 64.0352 4.354 63.8906 4.55C63.7459 4.746 63.5569 4.89767 63.3236 5.005C63.0949 5.11233 62.8359 5.166 62.5466 5.166Z" fill="black"/>
<path d="M64.9372 5.103V1.428H65.5042V5.103H64.9372ZM65.2312 0.798C65.1239 0.798 65.0376 0.77 64.9722 0.714C64.9069 0.653333 64.8742 0.574 64.8742 0.476C64.8742 0.378 64.9069 0.301 64.9722 0.245C65.0376 0.189 65.1239 0.161 65.2312 0.161C65.3339 0.161 65.4179 0.189 65.4832 0.245C65.5486 0.301 65.5812 0.378 65.5812 0.476C65.5812 0.574 65.5486 0.653333 65.4832 0.714C65.4179 0.77 65.3339 0.798 65.2312 0.798Z" fill="black"/>
<path d="M67.894 5.166C67.67 5.166 67.4624 5.12167 67.271 5.033C67.0844 4.94433 66.9234 4.81833 66.788 4.655C66.6527 4.49167 66.5477 4.29333 66.473 4.06C66.403 3.82667 66.368 3.56067 66.368 3.262C66.368 2.86533 66.431 2.527 66.557 2.247C66.6877 1.96233 66.8674 1.74533 67.096 1.596C67.3247 1.442 67.5907 1.365 67.894 1.365C68.104 1.365 68.2954 1.4 68.468 1.47C68.6454 1.53533 68.7947 1.62867 68.916 1.75C69.0374 1.87133 69.126 2.016 69.182 2.184H69.217L69.238 1.428H69.777V5.103H69.238L69.217 4.34H69.182C69.0934 4.58733 68.9347 4.788 68.706 4.942C68.482 5.09133 68.2114 5.166 67.894 5.166ZM68.076 4.69C68.3187 4.69 68.524 4.634 68.692 4.522C68.86 4.40533 68.9884 4.256 69.077 4.074C69.1657 3.892 69.21 3.696 69.21 3.486V3.038C69.21 2.82333 69.1634 2.625 69.07 2.443C68.9814 2.25633 68.853 2.10933 68.685 2.002C68.5217 1.89 68.321 1.834 68.083 1.834C67.8497 1.834 67.6467 1.89233 67.474 2.009C67.306 2.121 67.1754 2.28433 67.082 2.499C66.9934 2.709 66.949 2.96333 66.949 3.262C66.949 3.556 66.9934 3.81033 67.082 4.025C67.1754 4.23967 67.306 4.40533 67.474 4.522C67.642 4.634 67.8427 4.69 68.076 4.69Z" fill="black"/>
<path d="M71.8865 5.103C71.7091 5.103 71.5668 5.07733 71.4595 5.026C71.3568 4.97467 71.2821 4.89767 71.2355 4.795C71.1935 4.68767 71.1725 4.557 71.1725 4.403V1.897H70.4585V1.428H71.1725V0.329L71.7325 0.252V1.428H73.9095V5.103H73.3425V1.897H71.7325V4.305C71.7325 4.43567 71.7558 4.522 71.8025 4.564C71.8538 4.606 71.9425 4.627 72.0685 4.627H72.5865V5.103H71.8865ZM73.6295 0.798C73.5268 0.798 73.4405 0.77 73.3705 0.714C73.3051 0.653333 73.2725 0.574 73.2725 0.476C73.2725 0.378 73.3051 0.301 73.3705 0.245C73.4405 0.189 73.5268 0.161 73.6295 0.161C73.7321 0.161 73.8161 0.189 73.8815 0.245C73.9468 0.301 73.9795 0.378 73.9795 0.476C73.9795 0.574 73.9468 0.653333 73.8815 0.714C73.8161 0.77 73.7321 0.798 73.6295 0.798Z" fill="black"/>
<path d="M76.5264 5.166C76.2604 5.166 76.0177 5.12167 75.7984 5.033C75.5837 4.94433 75.3971 4.816 75.2384 4.648C75.0844 4.48 74.9631 4.28167 74.8744 4.053C74.7904 3.81967 74.7484 3.56067 74.7484 3.276C74.7484 2.898 74.8207 2.56667 74.9654 2.282C75.1101 1.99733 75.3154 1.77567 75.5814 1.617C75.8521 1.45367 76.1671 1.372 76.5264 1.372C76.7924 1.372 77.0327 1.41633 77.2474 1.505C77.4667 1.589 77.6534 1.715 77.8074 1.883C77.9614 2.051 78.0804 2.25167 78.1644 2.485C78.2484 2.71833 78.2904 2.97967 78.2904 3.269C78.2904 3.64233 78.2181 3.97133 78.0734 4.256C77.9334 4.54067 77.7304 4.76467 77.4644 4.928C77.1984 5.08667 76.8857 5.166 76.5264 5.166ZM76.5264 4.676C76.7644 4.676 76.9721 4.62233 77.1494 4.515C77.3267 4.403 77.4644 4.242 77.5624 4.032C77.6651 3.81733 77.7164 3.563 77.7164 3.269C77.7164 3.04967 77.6884 2.85367 77.6324 2.681C77.5764 2.50367 77.4971 2.35433 77.3944 2.233C77.2917 2.107 77.1681 2.01133 77.0234 1.946C76.8787 1.88067 76.7131 1.848 76.5264 1.848C76.2884 1.848 76.0784 1.90633 75.8964 2.023C75.7191 2.135 75.5791 2.296 75.4764 2.506C75.3784 2.716 75.3294 2.97267 75.3294 3.276C75.3294 3.49067 75.3551 3.68667 75.4064 3.864C75.4624 4.03667 75.5417 4.18367 75.6444 4.305C75.7517 4.42633 75.8801 4.51967 76.0294 4.585C76.1787 4.64567 76.3444 4.676 76.5264 4.676Z" fill="black"/>
<path d="M79.1286 5.103V1.428H79.6676L79.6886 2.191H79.7306C79.8426 1.92033 80.0153 1.71733 80.2486 1.582C80.482 1.442 80.7363 1.372 81.0116 1.372C81.203 1.372 81.378 1.4 81.5366 1.456C81.7 1.512 81.84 1.603 81.9566 1.729C82.078 1.855 82.1713 2.01833 82.2366 2.219C82.302 2.415 82.3346 2.65533 82.3346 2.94V5.103H81.7676V3.052C81.7676 2.77667 81.7326 2.55033 81.6626 2.373C81.5973 2.19567 81.4946 2.065 81.3546 1.981C81.2193 1.89233 81.0443 1.848 80.8296 1.848C80.601 1.848 80.4003 1.904 80.2276 2.016C80.055 2.128 79.922 2.27967 79.8286 2.471C79.7353 2.65767 79.6886 2.87233 79.6886 3.115V5.103H79.1286Z" fill="black"/>
<path d="M84.9815 5.103V0H88.4745V0.525H85.4575L85.5765 0.406V5.103H84.9815ZM85.3805 2.835V2.338H88.1945V2.835H85.3805Z" fill="black"/>
<path d="M88.9792 5.103V1.428H89.4832L89.5182 2.107H89.5462C89.6256 1.87367 89.7656 1.694 89.9662 1.568C90.1669 1.442 90.3909 1.379 90.6382 1.379C90.6802 1.379 90.7199 1.38133 90.7572 1.386C90.7946 1.386 90.8296 1.38833 90.8622 1.393V1.932C90.8296 1.92733 90.7946 1.925 90.7572 1.925C90.7199 1.92033 90.6802 1.918 90.6382 1.918C90.4236 1.918 90.2369 1.95767 90.0782 2.037C89.9196 2.11633 89.7936 2.23067 89.7002 2.38C89.6116 2.52467 89.5579 2.702 89.5392 2.912V5.103H88.9792Z" fill="black"/>
<path d="M92.6948 5.166C92.4708 5.166 92.2631 5.12167 92.0718 5.033C91.8851 4.94433 91.7241 4.81833 91.5888 4.655C91.4535 4.49167 91.3485 4.29333 91.2738 4.06C91.2038 3.82667 91.1688 3.56067 91.1688 3.262C91.1688 2.86533 91.2318 2.527 91.3578 2.247C91.4885 1.96233 91.6681 1.74533 91.8968 1.596C92.1255 1.442 92.3915 1.365 92.6948 1.365C92.9048 1.365 93.0961 1.4 93.2688 1.47C93.4461 1.53533 93.5955 1.62867 93.7168 1.75C93.8381 1.87133 93.9268 2.016 93.9828 2.184H94.0178L94.0388 1.428H94.5778V5.103H94.0388L94.0178 4.34H93.9828C93.8941 4.58733 93.7355 4.788 93.5068 4.942C93.2828 5.09133 93.0121 5.166 92.6948 5.166ZM92.8768 4.69C93.1195 4.69 93.3248 4.634 93.4928 4.522C93.6608 4.40533 93.7891 4.256 93.8778 4.074C93.9665 3.892 94.0108 3.696 94.0108 3.486V3.038C94.0108 2.82333 93.9641 2.625 93.8708 2.443C93.7821 2.25633 93.6538 2.10933 93.4858 2.002C93.3225 1.89 93.1218 1.834 92.8838 1.834C92.6505 1.834 92.4475 1.89233 92.2748 2.009C92.1068 2.121 91.9761 2.28433 91.8828 2.499C91.7941 2.709 91.7498 2.96333 91.7498 3.262C91.7498 3.556 91.7941 3.81033 91.8828 4.025C91.9761 4.23967 92.1068 4.40533 92.2748 4.522C92.4428 4.634 92.6435 4.69 92.8768 4.69Z" fill="black"/>
<path d="M95.6443 5.103V1.428H96.1833L96.2043 2.191H96.2463C96.3583 1.92033 96.5309 1.71733 96.7643 1.582C96.9976 1.442 97.2519 1.372 97.5273 1.372C97.7186 1.372 97.8936 1.4 98.0523 1.456C98.2156 1.512 98.3556 1.603 98.4723 1.729C98.5936 1.855 98.6869 2.01833 98.7523 2.219C98.8176 2.415 98.8503 2.65533 98.8503 2.94V5.103H98.2833V3.052C98.2833 2.77667 98.2483 2.55033 98.1783 2.373C98.1129 2.19567 98.0103 2.065 97.8703 1.981C97.7349 1.89233 97.5599 1.848 97.3453 1.848C97.1166 1.848 96.9159 1.904 96.7433 2.016C96.5706 2.128 96.4376 2.27967 96.3443 2.471C96.2509 2.65767 96.2043 2.87233 96.2043 3.115V5.103H95.6443Z" fill="black"/>
<path d="M101.443 5.166C101.177 5.166 100.934 5.12167 100.715 5.033C100.5 4.93967 100.316 4.81133 100.162 4.648C100.008 4.48 99.889 4.28167 99.805 4.053C99.721 3.81967 99.6791 3.55833 99.6791 3.269C99.6791 2.98433 99.721 2.72767 99.805 2.499C99.889 2.26567 100.01 2.065 100.169 1.897C100.328 1.729 100.517 1.60067 100.736 1.512C100.955 1.41867 101.198 1.372 101.464 1.372C101.749 1.372 102.003 1.42333 102.227 1.526C102.451 1.62867 102.633 1.77333 102.773 1.96C102.913 2.14667 102.997 2.36367 103.025 2.611H102.472C102.435 2.443 102.367 2.303 102.269 2.191C102.171 2.079 102.052 1.995 101.912 1.939C101.772 1.883 101.618 1.855 101.45 1.855C101.259 1.855 101.088 1.89 100.939 1.96C100.794 2.02533 100.671 2.121 100.568 2.247C100.465 2.373 100.386 2.52233 100.33 2.695C100.279 2.86767 100.253 3.06133 100.253 3.276C100.253 3.57 100.302 3.822 100.4 4.032C100.503 4.242 100.643 4.403 100.82 4.515C100.997 4.627 101.205 4.683 101.443 4.683C101.634 4.683 101.802 4.648 101.947 4.578C102.092 4.508 102.211 4.41467 102.304 4.298C102.402 4.17667 102.465 4.032 102.493 3.864H103.046C103.018 4.12533 102.932 4.354 102.787 4.55C102.642 4.746 102.453 4.89767 102.22 5.005C101.991 5.11233 101.732 5.166 101.443 5.166ZM101.38 6.79C101.179 6.79 101.004 6.74333 100.855 6.65C100.706 6.56133 100.608 6.42833 100.561 6.251L100.953 6.146C100.981 6.23467 101.028 6.30467 101.093 6.356C101.163 6.40733 101.252 6.43533 101.359 6.44C101.485 6.44 101.581 6.40733 101.646 6.342C101.716 6.27667 101.751 6.19267 101.751 6.09C101.751 5.97333 101.702 5.88233 101.604 5.817C101.506 5.75167 101.347 5.698 101.128 5.656L101.051 5.502L101.324 5.005H101.639L101.464 5.432C101.688 5.488 101.863 5.57433 101.989 5.691C102.115 5.81233 102.178 5.964 102.178 6.146C102.178 6.342 102.103 6.49833 101.954 6.615C101.809 6.73633 101.618 6.79467 101.38 6.79Z" fill="black"/>
<path d="M105.157 5.166C104.933 5.166 104.725 5.12167 104.534 5.033C104.347 4.94433 104.186 4.81833 104.051 4.655C103.915 4.49167 103.81 4.29333 103.736 4.06C103.666 3.82667 103.631 3.56067 103.631 3.262C103.631 2.86533 103.694 2.527 103.82 2.247C103.95 1.96233 104.13 1.74533 104.359 1.596C104.587 1.442 104.853 1.365 105.157 1.365C105.367 1.365 105.558 1.4 105.731 1.47C105.908 1.53533 106.057 1.62867 106.179 1.75C106.3 1.87133 106.389 2.016 106.445 2.184H106.48L106.501 1.428H107.04V5.103H106.501L106.48 4.34H106.445C106.356 4.58733 106.197 4.788 105.969 4.942C105.745 5.09133 105.474 5.166 105.157 5.166ZM105.339 4.69C105.581 4.69 105.787 4.634 105.955 4.522C106.123 4.40533 106.251 4.256 106.34 4.074C106.428 3.892 106.473 3.696 106.473 3.486V3.038C106.473 2.82333 106.426 2.625 106.333 2.443C106.244 2.25633 106.116 2.10933 105.948 2.002C105.784 1.89 105.584 1.834 105.346 1.834C105.112 1.834 104.909 1.89233 104.737 2.009C104.569 2.121 104.438 2.28433 104.345 2.499C104.256 2.709 104.212 2.96333 104.212 3.262C104.212 3.556 104.256 3.81033 104.345 4.025C104.438 4.23967 104.569 4.40533 104.737 4.522C104.905 4.634 105.105 4.69 105.339 4.69Z" fill="black"/>
<path d="M108.106 5.103V1.428H108.673V5.103H108.106ZM108.4 0.798C108.293 0.798 108.207 0.77 108.141 0.714C108.076 0.653333 108.043 0.574 108.043 0.476C108.043 0.378 108.076 0.301 108.141 0.245C108.207 0.189 108.293 0.161 108.4 0.161C108.503 0.161 108.587 0.189 108.652 0.245C108.718 0.301 108.75 0.378 108.75 0.476C108.75 0.574 108.718 0.653333 108.652 0.714C108.587 0.77 108.503 0.798 108.4 0.798Z" fill="black"/>
<path d="M110.993 5.173C110.764 5.173 110.559 5.145 110.377 5.089C110.195 5.033 110.039 4.956 109.908 4.858C109.777 4.75533 109.677 4.634 109.607 4.494C109.537 4.34933 109.5 4.19067 109.495 4.018H110.055C110.064 4.18133 110.109 4.319 110.188 4.431C110.272 4.53833 110.384 4.61767 110.524 4.669C110.669 4.72033 110.83 4.746 111.007 4.746C111.292 4.746 111.509 4.69233 111.658 4.585C111.812 4.47767 111.889 4.326 111.889 4.13C111.889 3.98067 111.856 3.86633 111.791 3.787C111.726 3.703 111.625 3.63767 111.49 3.591C111.355 3.54433 111.177 3.50467 110.958 3.472C110.655 3.43 110.403 3.37167 110.202 3.297C110.001 3.22233 109.85 3.11733 109.747 2.982C109.644 2.842 109.593 2.66 109.593 2.436C109.593 2.22133 109.651 2.03467 109.768 1.876C109.885 1.71267 110.048 1.58667 110.258 1.498C110.468 1.40467 110.713 1.358 110.993 1.358C111.278 1.358 111.523 1.40467 111.728 1.498C111.933 1.58667 112.094 1.715 112.211 1.883C112.328 2.04633 112.388 2.24233 112.393 2.471H111.84C111.831 2.30767 111.789 2.177 111.714 2.079C111.644 1.97633 111.546 1.904 111.42 1.862C111.299 1.81533 111.154 1.792 110.986 1.792C110.725 1.792 110.522 1.84567 110.377 1.953C110.232 2.06033 110.16 2.20267 110.16 2.38C110.16 2.51533 110.195 2.625 110.265 2.709C110.335 2.78833 110.442 2.85133 110.587 2.898C110.736 2.94 110.923 2.97733 111.147 3.01C111.422 3.04733 111.658 3.10333 111.854 3.178C112.055 3.25267 112.206 3.36233 112.309 3.507C112.412 3.647 112.463 3.83833 112.463 4.081C112.463 4.31433 112.402 4.51267 112.281 4.676C112.16 4.83467 111.987 4.95833 111.763 5.047C111.544 5.131 111.287 5.173 110.993 5.173Z" fill="black"/>
<path d="M114.75 5.166C114.4 5.166 114.099 5.089 113.847 4.935C113.599 4.781 113.41 4.56167 113.28 4.277C113.149 3.99233 113.084 3.661 113.084 3.283C113.084 2.89567 113.149 2.55967 113.28 2.275C113.41 1.98567 113.597 1.764 113.84 1.61C114.082 1.45133 114.379 1.372 114.729 1.372C115.102 1.372 115.41 1.456 115.653 1.624C115.895 1.792 116.07 2.02533 116.178 2.324C116.29 2.62267 116.332 2.968 116.304 3.36H113.637C113.641 3.66333 113.688 3.91767 113.777 4.123C113.87 4.32367 113.998 4.47533 114.162 4.578C114.33 4.676 114.526 4.725 114.75 4.725C115.011 4.725 115.226 4.66433 115.394 4.543C115.562 4.42167 115.674 4.26067 115.73 4.06H116.276C116.234 4.29333 116.14 4.494 115.996 4.662C115.856 4.82533 115.678 4.95133 115.464 5.04C115.249 5.124 115.011 5.166 114.75 5.166ZM113.644 3.038L113.581 2.954H115.814L115.751 3.052C115.755 2.758 115.716 2.52233 115.632 2.345C115.548 2.163 115.426 2.03 115.268 1.946C115.114 1.85733 114.934 1.813 114.729 1.813C114.514 1.813 114.327 1.85967 114.169 1.953C114.01 2.04633 113.884 2.184 113.791 2.366C113.702 2.54333 113.653 2.76733 113.644 3.038Z" fill="black"/>
<path d="M120.032 5.166C119.808 5.166 119.6 5.12167 119.409 5.033C119.222 4.94433 119.061 4.81833 118.926 4.655C118.79 4.49167 118.685 4.29333 118.611 4.06C118.541 3.82667 118.506 3.56067 118.506 3.262C118.506 2.86533 118.569 2.527 118.695 2.247C118.825 1.96233 119.005 1.74533 119.234 1.596C119.462 1.442 119.728 1.365 120.032 1.365C120.242 1.365 120.433 1.4 120.606 1.47C120.783 1.53533 120.932 1.62867 121.054 1.75C121.175 1.87133 121.264 2.016 121.32 2.184H121.348V0H121.915V5.103H121.376L121.355 4.34H121.32C121.231 4.58733 121.072 4.788 120.844 4.942C120.62 5.09133 120.349 5.166 120.032 5.166ZM120.214 4.69C120.456 4.69 120.662 4.634 120.83 4.522C120.998 4.40533 121.126 4.256 121.215 4.074C121.303 3.892 121.348 3.696 121.348 3.486V3.038C121.348 2.82333 121.301 2.625 121.208 2.443C121.119 2.25633 120.991 2.10933 120.823 2.002C120.659 1.89 120.459 1.834 120.221 1.834C119.987 1.834 119.784 1.89233 119.612 2.009C119.444 2.121 119.313 2.28433 119.22 2.499C119.131 2.709 119.087 2.96333 119.087 3.262C119.087 3.556 119.131 3.81033 119.22 4.025C119.313 4.23967 119.444 4.40533 119.612 4.522C119.78 4.634 119.98 4.69 120.214 4.69Z" fill="black"/>
<path d="M124.388 5.166C124.038 5.166 123.737 5.089 123.485 4.935C123.238 4.781 123.049 4.56167 122.918 4.277C122.788 3.99233 122.722 3.661 122.722 3.283C122.722 2.89567 122.788 2.55967 122.918 2.275C123.049 1.98567 123.236 1.764 123.478 1.61C123.721 1.45133 124.017 1.372 124.367 1.372C124.741 1.372 125.049 1.456 125.291 1.624C125.534 1.792 125.709 2.02533 125.816 2.324C125.928 2.62267 125.97 2.968 125.942 3.36H123.275C123.28 3.66333 123.327 3.91767 123.415 4.123C123.509 4.32367 123.637 4.47533 123.8 4.578C123.968 4.676 124.164 4.725 124.388 4.725C124.65 4.725 124.864 4.66433 125.032 4.543C125.2 4.42167 125.312 4.26067 125.368 4.06H125.914C125.872 4.29333 125.779 4.494 125.634 4.662C125.494 4.82533 125.317 4.95133 125.102 5.04C124.888 5.124 124.65 5.166 124.388 5.166ZM123.282 3.038L123.219 2.954H125.452L125.389 3.052C125.394 2.758 125.354 2.52233 125.27 2.345C125.186 2.163 125.065 2.03 124.906 1.946C124.752 1.85733 124.573 1.813 124.367 1.813C124.153 1.813 123.966 1.85967 123.807 1.953C123.649 2.04633 123.523 2.184 123.429 2.366C123.341 2.54333 123.292 2.76733 123.282 3.038Z" fill="black"/>
</svg>
