<svg width="50" height="48" viewBox="0 0 50 48" fill="none" xmlns="http://www.w3.org/2000/svg">
<rect x="1" width="48" height="48" fill="#F0EAEA"/>
<path d="M10.5688 22L15.9288 7.42L21.1088 7.42L26.4888 22L22.4288 22L19.1688 12.08L18.5888 10.22L18.4488 10.22L17.8688 12.08L14.6088 22L10.5688 22ZM15.2488 19.26L16.1888 16.38L20.8688 16.38L21.7888 19.26L15.2488 19.26ZM27.7416 22L27.7416 7.42L39.1816 7.42L39.1816 10.54L31.1216 10.54L31.5616 10.1L31.5616 22L27.7416 22ZM30.8216 16.56L30.8216 13.62L38.3816 13.62L38.3816 16.56L30.8216 16.56ZM13.3905 39L13.3905 27.26L17.1905 27.26L17.1905 39L13.3905 39ZM8.99047 27.56L8.99047 24.42L21.6905 24.42L21.6905 27.56L8.99047 27.56ZM23.0931 39L23.0931 24.42L28.9331 24.42L30.8331 31.2L31.5531 34.26L31.7131 34.26L32.4331 31.2L34.2931 24.42L40.1131 24.42L40.1131 39L36.5131 39L36.5131 33.12L36.6131 27.92L36.4331 27.92L35.2931 32.12L33.2731 39L29.9931 39L27.9531 32.1L26.8331 27.92L26.6531 27.92L26.7331 33.14L26.7331 39L23.0931 39Z" fill="black"/>
</svg>
